<svg width="100" height="94" viewBox="0 0 100 94" fill="none" xmlns="http://www.w3.org/2000/svg">
<path fill-rule="evenodd" clip-rule="evenodd" d="M48.7787 44.3938C48.7787 45.0983 49.3442 45.6674 50.0425 45.6674C50.7408 45.6674 51.3063 45.0983 51.3063 44.3938C51.3063 43.6892 50.7408 43.1187 50.0425 43.1187C49.3442 43.1187 48.7787 43.6892 48.7787 44.3938Z" fill="black"/>
<mask id="mask0_48_229" style="mask-type:alpha" maskUnits="userSpaceOnUse" x="48" y="43" width="4" height="3">
<path d="M48.779 44.3933C48.779 45.0978 49.3444 45.6669 50.0428 45.6669C50.7411 45.6669 51.3065 45.0978 51.3065 44.3933C51.3065 43.6887 50.7411 43.1181 50.0428 43.1181C49.3444 43.1181 48.779 43.6887 48.779 44.3933Z" fill="white"/>
</mask>
<g mask="url(#mask0_48_229)">
<path fill-rule="evenodd" clip-rule="evenodd" d="M48.779 45.6664H51.3065V43.1191H48.779V45.6664Z" fill="black"/>
</g>
<path fill-rule="evenodd" clip-rule="evenodd" d="M44.225 0.923219C44.225 0.923219 45.6231 3.19949 46.5384 5.50436C47.284 7.3862 47.7166 8.45508 48.5552 9.62483C49.2535 10.6019 50.3563 10.9 51.4326 10.9C51.8238 10.9 52.5723 10.8382 53.2293 10.3128L53.1644 8.85403L53.1319 7.50664C52.81 7.80472 52.4277 8.16754 52.1855 8.24131C51.7559 8.3768 51.2982 8.4596 50.6796 8.21571C50.061 7.97032 49.6034 6.96918 49.441 6.6154C49.1605 6.00117 48.285 3.95222 47.8022 2.8999C47.129 1.43508 46.1885 0.000366211 46.1885 0.000366211L44.225 0.923219Z" fill="black"/>
<mask id="mask1_48_229" style="mask-type:alpha" maskUnits="userSpaceOnUse" x="44" y="0" width="10" height="11">
<path d="M46.1866 0.000976562L44.226 0.922324C44.226 0.922324 45.6226 3.19859 46.5394 5.50347C47.2835 7.3853 47.7161 8.45569 48.5546 9.62394C49.253 10.601 50.3558 10.8991 51.4321 10.8991C51.8248 10.8991 52.5718 10.8389 53.2288 10.3119L53.1639 8.85314L53.1314 7.50725C52.811 7.80533 52.4272 8.16664 52.1865 8.24041C51.7569 8.3759 51.2977 8.4587 50.6806 8.21482C50.0605 7.96943 49.6029 6.96829 49.4405 6.6145C49.16 6.00178 48.2845 3.95133 47.8017 2.90051C47.1403 1.45978 46.222 0.0491516 46.1895 0.000976562H46.1866Z" fill="white"/>
</mask>
<g mask="url(#mask1_48_229)">
<path fill-rule="evenodd" clip-rule="evenodd" d="M44.225 10.8996H53.2293V-3.05176e-05H44.225V10.8996Z" fill="black"/>
</g>
<path fill-rule="evenodd" clip-rule="evenodd" d="M34.9039 29.9889H34.9054C35.0486 30.2553 35.2036 30.5353 35.3394 30.7672C35.6568 31.3046 36.1957 32.1206 36.1957 32.1206C36.1957 32.1206 37.5805 32.4759 38.4811 32.649C39.3817 32.8222 40.4447 32.8643 41.0456 32.8643C41.2124 32.8643 41.394 32.923 41.6391 32.9095C41.6391 32.9095 41.7631 32.3374 41.8974 31.9926C42.0333 31.6494 42.3211 31.1481 42.3211 31.1481L41.989 31.136C40.8743 31.0924 39.3743 30.8334 38.4383 30.5715C37.8537 30.4119 37.2971 30.1816 36.8246 29.9889H36.8187C36.5382 29.8729 36.2858 29.7721 36.0791 29.7073C35.521 29.5342 34.4078 29.0389 34.4078 29.0389C34.4078 29.0389 34.6367 29.4906 34.9039 29.9889Z" fill="black"/>
<mask id="mask2_48_229" style="mask-type:alpha" maskUnits="userSpaceOnUse" x="34" y="29" width="9" height="4">
<path d="M34.9042 29.9889H34.9056C35.0474 30.2553 35.2039 30.5353 35.3382 30.7672C35.6571 31.3046 36.196 32.1206 36.196 32.1206C36.196 32.1206 37.5808 32.4774 38.4814 32.649C39.382 32.8222 40.4449 32.8643 41.0458 32.8643C41.2127 32.8643 41.3942 32.923 41.6378 32.911C41.6378 32.911 41.7633 32.3374 41.8977 31.9926C42.0335 31.6494 42.3214 31.1481 42.3214 31.1481L41.9892 31.136C40.8746 31.0939 39.3746 30.8334 38.4371 30.57C37.8524 30.4119 37.2959 30.1816 36.8249 29.9889H36.819C36.5385 29.8729 36.286 29.7721 36.0808 29.7058C35.5213 29.5342 34.4066 29.0389 34.4066 29.0389C34.4066 29.0389 34.6355 29.4906 34.9042 29.9889Z" fill="white"/>
</mask>
<g mask="url(#mask2_48_229)">
<path fill-rule="evenodd" clip-rule="evenodd" d="M34.4066 32.923H42.3199V29.0389H34.4066V32.923Z" fill="black"/>
</g>
<path fill-rule="evenodd" clip-rule="evenodd" d="M40.7885 37.1885L42.0346 37.8388L41.6891 36.3665L40.7885 37.1885Z" fill="black"/>
<mask id="mask3_48_229" style="mask-type:alpha" maskUnits="userSpaceOnUse" x="40" y="36" width="3" height="2">
<path d="M40.7875 37.1881L42.0335 37.8385L41.6895 36.3676L40.7875 37.1881Z" fill="white"/>
</mask>
<g mask="url(#mask3_48_229)">
<path fill-rule="evenodd" clip-rule="evenodd" d="M40.7885 37.839H42.0345V36.3666H40.7885V37.839Z" fill="black"/>
</g>
<path fill-rule="evenodd" clip-rule="evenodd" d="M40.8743 33.644C40.4034 33.7314 39.8881 33.9466 39.4171 34.1183C38.6317 34.4073 37.9201 34.2884 37.9201 34.2884L39.5884 36.0588C39.5884 36.0588 40.3605 35.7637 41.2168 35.3287C41.3586 35.2579 41.4412 35.2609 41.5741 35.2037V34.451C41.5682 34.0806 41.5416 33.4995 41.5416 33.4995L40.8743 33.644Z" fill="black"/>
<mask id="mask4_48_229" style="mask-type:alpha" maskUnits="userSpaceOnUse" x="37" y="33" width="5" height="4">
<path d="M40.8746 33.6441C40.4021 33.7299 39.8883 33.9467 39.4174 34.1199C38.632 34.4059 37.9203 34.287 37.9203 34.287L39.5901 36.0574C39.5901 36.0574 40.3593 35.7638 41.2171 35.3287C41.3588 35.258 41.4415 35.261 41.5729 35.2038V34.4511C41.5684 34.0792 41.5419 33.4996 41.5419 33.4996L40.8746 33.6441Z" fill="white"/>
</mask>
<g mask="url(#mask4_48_229)">
<path fill-rule="evenodd" clip-rule="evenodd" d="M37.9203 36.0574H41.5743V33.4996H37.9203V36.0574Z" fill="black"/>
</g>
<path fill-rule="evenodd" clip-rule="evenodd" d="M46.4935 41.8094L47.394 43.1041C47.394 43.1041 47.5668 42.8888 47.8665 42.6299C48.1662 42.3694 48.8527 41.8952 50.0869 41.9388C51.3227 41.981 52.7902 44.057 52.7902 44.057L54.2916 43.2787C54.2916 43.2787 53.9063 42.5877 53.1342 41.8094C52.362 41.028 51.46 40.1654 49.5392 40.0796C49.4949 40.0751 49.4506 40.0751 49.4063 40.0751C47.5653 40.0751 46.4935 41.8094 46.4935 41.8094Z" fill="black"/>
<mask id="mask5_48_229" style="mask-type:alpha" maskUnits="userSpaceOnUse" x="46" y="40" width="9" height="5">
<path d="M46.4937 41.8099L47.3942 43.1046C47.3942 43.1046 47.5655 42.8878 47.8681 42.6289C48.1664 42.37 48.8529 41.8957 50.0871 41.9379C51.3228 41.9816 52.7903 44.0576 52.7903 44.0576L54.2918 43.2793C54.2918 43.2793 53.905 42.5883 53.1343 41.8099C52.3607 41.0286 51.4601 40.166 49.5394 40.0801C49.4951 40.0741 49.4508 40.0741 49.4065 40.0741C47.5655 40.0741 46.4937 41.8099 46.4937 41.8099Z" fill="white"/>
</mask>
<g mask="url(#mask5_48_229)">
<path fill-rule="evenodd" clip-rule="evenodd" d="M46.4937 44.0576H54.2918V40.0741H46.4937V44.0576Z" fill="black"/>
</g>
<path fill-rule="evenodd" clip-rule="evenodd" d="M43.8551 33.2101C43.8551 33.2101 43.7606 33.725 43.7532 34.0577C43.7473 34.3136 43.7857 34.7126 43.7857 34.7126C44.5489 34.6494 45.417 34.5079 46.7089 34.5079C48.2531 34.5079 49.5819 34.6373 50.0012 34.7261C50.7689 34.8827 52.5759 35.1567 53.8205 35.5015C55.0636 35.8492 55.9937 36.1684 57.5527 36.4981C59.3967 36.8865 60.1305 36.9844 61.7958 37.019C62.9252 37.0401 64.688 36.8775 64.688 36.8775C64.688 36.8775 65.3125 36.2632 65.6639 35.8282C66.0256 35.3795 66.5113 34.6147 66.5113 34.6147C66.5113 34.6147 65.0512 34.8737 64.1108 34.9399C62.3731 35.0619 61.4887 34.8978 59.6521 34.7261C57.8185 34.553 56.1369 34.1194 54.7639 33.7732C53.3894 33.4284 51.8481 33.2101 49.539 33.1243C49.1139 33.1078 48.6473 33.1017 48.1675 33.1017C46.4416 33.1017 44.5608 33.1845 43.8551 33.2101Z" fill="black"/>
<mask id="mask6_48_229" style="mask-type:alpha" maskUnits="userSpaceOnUse" x="43" y="33" width="24" height="5">
<path d="M43.8539 33.2107C43.8539 33.2107 43.7609 33.7255 43.7521 34.0582C43.7476 34.3142 43.786 34.7131 43.786 34.7131C44.5478 34.6484 45.4174 34.5084 46.7092 34.5084C48.2535 34.5084 49.5807 34.6378 50.0015 34.7267C50.7677 34.8832 52.5763 35.1572 53.8194 35.502C55.064 35.8497 55.9941 36.1674 57.5531 36.4971C59.3971 36.887 60.1308 36.9834 61.7947 37.018C62.9256 37.0406 64.6884 36.8765 64.6884 36.8765C64.6884 36.8765 65.3129 36.2637 65.6643 35.8287C66.026 35.38 66.5117 34.6138 66.5117 34.6138C66.5117 34.6138 65.0516 34.8742 64.1111 34.9404C62.3749 35.0624 61.4876 34.8983 59.6525 34.7267C57.8189 34.552 56.1373 34.12 54.7643 33.7737C53.3898 33.429 51.847 33.2107 49.5394 33.1248C49.1142 33.1068 48.6477 33.1023 48.1679 33.1023C46.442 33.1023 44.5611 33.1851 43.8539 33.2107Z" fill="white"/>
</mask>
<g mask="url(#mask6_48_229)">
<path fill-rule="evenodd" clip-rule="evenodd" d="M43.7469 37.0396H66.5109V33.1013H43.7469V37.0396Z" fill="black"/>
</g>
<path fill-rule="evenodd" clip-rule="evenodd" d="M65.0922 31.265C63.6764 31.6971 61.36 31.7859 59.9545 31.7407C58.5475 31.6971 54.7636 31.0046 53.519 30.7893C52.2759 30.571 50.4305 30.5303 49.2819 30.5303C48.1318 30.5303 45.3385 30.8886 44.5649 30.976C44.5649 30.976 44.3479 31.4788 44.2238 31.804C44.091 32.1547 43.9153 32.7118 43.9153 32.7118C44.9871 32.626 46.4517 32.5612 48.4226 32.4769C50.398 32.3881 50.9885 32.3881 52.4472 32.5191C53.9058 32.6485 56.1794 33.1243 57.5096 33.3817C58.8384 33.6437 60.2955 33.7731 61.4456 33.7731C62.5957 33.7731 63.9333 33.5548 65.0922 33.2537C66.2512 32.9526 67.2256 32.3535 67.2256 32.3535L67.4544 30.288C67.4544 30.288 66.5066 30.8329 65.0922 31.265Z" fill="black"/>
<mask id="mask7_48_229" style="mask-type:alpha" maskUnits="userSpaceOnUse" x="43" y="30" width="25" height="4">
<path d="M65.0914 31.2657C63.677 31.6978 61.3606 31.7866 59.9536 31.7414C58.5481 31.6978 54.7642 31.0037 53.5196 30.7885C52.2765 30.5702 50.4311 30.5295 49.2825 30.5295C48.1324 30.5295 45.3376 30.8893 44.5655 30.9766C44.5655 30.9766 44.347 31.478 44.2245 31.8047C44.0916 32.1539 43.9159 32.7109 43.9159 32.7109C44.9863 32.6266 46.4508 32.5619 48.4232 32.4776C50.3971 32.3888 50.9892 32.3888 52.4463 32.5198C53.905 32.6492 56.18 33.1249 57.5102 33.3824C58.839 33.6443 60.2961 33.7738 61.4462 33.7738C62.5963 33.7738 63.9339 33.5555 65.0914 33.2544C66.2503 32.9533 67.2262 32.3526 67.2262 32.3526L67.4536 30.2871C67.4536 30.2871 66.5072 30.8336 65.0914 31.2657Z" fill="white"/>
</mask>
<g mask="url(#mask7_48_229)">
<path fill-rule="evenodd" clip-rule="evenodd" d="M43.9159 33.7723H67.4536V30.2871H43.9159V33.7723Z" fill="black"/>
</g>
<path fill-rule="evenodd" clip-rule="evenodd" d="M45.6351 35.3729C44.8201 35.4602 43.8767 35.6318 43.8767 35.6318L44.392 37.3195C44.392 37.3195 45.0357 37.1885 46.1075 37.059C47.1808 36.9295 47.7773 36.8302 49.0676 36.9295C50.1749 37.0153 51.8476 37.4068 52.9194 37.8825C53.6768 38.2182 55.3643 39.0402 56.2221 39.4286C57.0798 39.817 57.852 39.8622 58.6241 39.9917C59.3962 40.1211 60.9479 40.0368 60.9479 40.0368L62.8997 38.4937C62.8997 38.4937 62.2633 38.5645 61.4041 38.5223C60.5463 38.4787 59.0965 38.0978 57.5523 37.7109C56.008 37.3195 54.849 36.7564 53.5631 36.2822C52.2757 35.8049 50.5587 35.3292 49.3673 35.2434C49.0912 35.2223 48.7871 35.2163 48.4712 35.2163C47.4244 35.2163 46.2625 35.3066 45.6351 35.3729Z" fill="black"/>
<mask id="mask8_48_229" style="mask-type:alpha" maskUnits="userSpaceOnUse" x="43" y="35" width="20" height="6">
<path d="M45.6358 35.3725C44.8208 35.4598 43.8774 35.6314 43.8774 35.6314L44.3912 37.319C44.3912 37.319 45.0349 37.188 46.1082 37.0601C47.1801 36.9291 47.7765 36.8297 49.0669 36.9291C50.1741 37.0149 51.8469 37.4063 52.9187 37.8821C53.6761 38.2178 55.3635 39.0383 56.2228 39.4297C57.0791 39.8166 57.8512 39.8633 58.6248 39.9927C59.397 40.1222 60.9472 40.0364 60.9472 40.0364L62.9004 38.4948C62.9004 38.4948 62.2626 38.564 61.4034 38.5219C60.5456 38.4782 59.0958 38.0973 57.553 37.7089C56.0072 37.319 54.8498 36.756 53.5624 36.2818C52.2765 35.8045 50.5595 35.3288 49.368 35.243C49.0905 35.2234 48.7863 35.2159 48.4719 35.2159C47.4251 35.2159 46.2618 35.3062 45.6358 35.3725Z" fill="white"/>
</mask>
<g mask="url(#mask8_48_229)">
<path fill-rule="evenodd" clip-rule="evenodd" d="M43.8765 40.1222H62.8994V35.2159H43.8765V40.1222Z" fill="black"/>
</g>
<path fill-rule="evenodd" clip-rule="evenodd" d="M44.9056 38.6071L45.6393 40.1668C45.6393 40.1668 46.3214 39.8175 46.751 39.6895C47.1807 39.5601 48.3381 39.3854 48.9375 39.3854C49.5399 39.3854 50.56 39.5601 51.5891 39.9063C52.6196 40.2526 53.3902 40.8126 53.9911 41.1589C54.592 41.5051 56.123 42.5936 56.123 42.5936L58.2386 41.6752C58.2386 41.6752 57.9374 41.4178 57.5521 41.2462C57.1668 41.0731 55.7923 40.0794 55.063 39.7302C54.3336 39.3854 53.2205 38.6929 52.2756 38.3467C51.3322 38.0019 49.624 37.7098 47.91 37.6647H47.7993C46.1383 37.6647 44.9056 38.6071 44.9056 38.6071Z" fill="black"/>
<mask id="mask9_48_229" style="mask-type:alpha" maskUnits="userSpaceOnUse" x="44" y="37" width="15" height="6">
<path d="M47.8002 37.6654C46.1393 37.6654 44.9051 38.6063 44.9051 38.6063L45.6388 40.1675C45.6388 40.1675 46.3209 39.8167 46.752 39.6888C47.1802 39.5593 48.3376 39.3847 48.9385 39.3847C49.5394 39.3847 50.5596 39.5593 51.5886 39.907C52.6191 40.2533 53.3898 40.8133 53.9921 41.1596C54.5915 41.5044 56.1225 42.5943 56.1225 42.5943L58.2396 41.676C58.2396 41.676 57.9384 41.4185 57.5531 41.2454C57.1663 41.0723 55.7918 40.0802 55.0639 39.7294C54.3346 39.3847 53.22 38.6921 52.2766 38.3474C51.3317 38.0011 49.6235 37.7091 47.9095 37.6654H47.8002Z" fill="white"/>
</mask>
<g mask="url(#mask9_48_229)">
<path fill-rule="evenodd" clip-rule="evenodd" d="M44.9051 42.5943H58.2381V37.6654H44.9051V42.5943Z" fill="black"/>
</g>
<path fill-rule="evenodd" clip-rule="evenodd" d="M57.5454 15.149C56.5813 15.7195 55.6999 16.388 54.0715 17.0127C54.0715 17.0127 53.9563 17.9461 53.7482 18.5046C53.568 18.9909 53.131 19.6834 53.131 19.6834C53.8884 19.4411 54.7432 19.0632 55.9435 18.5257C58.2585 17.487 61.1433 15.3115 61.1433 15.3115L60.4494 13.0488C60.4494 13.0488 58.8741 14.3601 57.5454 15.149Z" fill="black"/>
<mask id="mask10_48_229" style="mask-type:alpha" maskUnits="userSpaceOnUse" x="53" y="13" width="9" height="7">
<path d="M57.5457 15.1495C56.5816 15.72 55.7002 16.3885 54.0718 17.0132C54.0718 17.0132 53.9552 17.9466 53.7485 18.5037C53.5684 18.9899 53.1313 19.6824 53.1313 19.6824C53.8887 19.4401 54.7421 19.0622 55.9438 18.5247C58.2573 17.486 61.1421 15.3121 61.1421 15.3121L60.4497 13.0493C60.4497 13.0493 58.8744 14.3591 57.5457 15.1495Z" fill="white"/>
</mask>
<g mask="url(#mask10_48_229)">
<path fill-rule="evenodd" clip-rule="evenodd" d="M53.1313 19.6824H61.1421V13.0493H53.1313V19.6824Z" fill="black"/>
</g>
<path fill-rule="evenodd" clip-rule="evenodd" d="M56.8656 11.5236C56.1377 12.2191 55.1234 13.0516 54.118 13.6779L54.1402 16.3426C54.3808 16.2312 54.6171 16.1077 54.8474 15.9692C57.6096 14.3147 59.9305 11.3866 59.9305 11.3866L59.3119 8.95071C59.3119 8.95071 57.995 10.4381 56.8656 11.5236Z" fill="black"/>
<mask id="mask11_48_229" style="mask-type:alpha" maskUnits="userSpaceOnUse" x="54" y="8" width="6" height="9">
<path d="M56.8651 11.5228C56.1387 12.2184 55.123 13.0509 54.1176 13.6772L54.1397 16.3433C54.3803 16.2319 54.618 16.107 54.8469 15.9685C57.6092 14.314 59.93 11.3858 59.93 11.3858L59.3114 8.94998C59.3114 8.94998 57.9945 10.4374 56.8651 11.5228Z" fill="white"/>
</mask>
<g mask="url(#mask11_48_229)">
<path fill-rule="evenodd" clip-rule="evenodd" d="M54.1176 16.3418H59.93V8.94998H54.1176V16.3418Z" fill="black"/>
</g>
<path fill-rule="evenodd" clip-rule="evenodd" d="M56.3004 6.99684C55.574 8.21627 54.9554 9.00213 54.3634 9.73378C54.2113 9.92046 54.0888 10.0906 53.9471 10.2396L54.0312 13.0308C55.047 12.3699 55.9815 11.3672 56.891 10.0319C58.171 8.16057 58.7275 6.81769 58.7275 6.81769L57.7177 4.24936C57.7177 4.24936 57.0268 5.7759 56.3004 6.99684Z" fill="black"/>
<mask id="mask12_48_229" style="mask-type:alpha" maskUnits="userSpaceOnUse" x="53" y="4" width="6" height="10">
<path d="M56.3011 6.99589C55.5747 8.21532 54.9561 9.00118 54.3641 9.73434C54.212 9.91952 54.0895 10.0896 53.9463 10.2402L54.0319 13.0298C55.0477 12.3704 55.9822 11.3678 56.8916 10.0309C58.1702 8.16113 58.7268 6.81674 58.7268 6.81674L57.7184 4.24841C57.7184 4.24841 57.026 5.77646 56.3011 6.99589Z" fill="white"/>
</mask>
<g mask="url(#mask12_48_229)">
<path fill-rule="evenodd" clip-rule="evenodd" d="M53.9463 13.0298H58.7268V4.24841H53.9463V13.0298Z" fill="black"/>
</g>
<path fill-rule="evenodd" clip-rule="evenodd" d="M56.2161 19.4314C54.88 19.8876 53.7506 20.2805 52.636 20.55L51.8948 21.4864L50.9514 22.6667C52.3835 22.3189 53.1852 22.0886 55.0823 21.7559C57.1152 21.4021 57.4666 21.3614 59.5394 20.6132C61.6108 19.865 62.8347 18.3731 62.8347 18.3731L61.5679 16.8977C61.5679 16.8977 58.6403 18.6034 56.2161 19.4314Z" fill="black"/>
<mask id="mask13_48_229" style="mask-type:alpha" maskUnits="userSpaceOnUse" x="50" y="16" width="13" height="7">
<path d="M56.2155 19.4326C54.8794 19.8873 53.7515 20.2817 52.6353 20.5512L51.8942 21.4876L50.9508 22.6679C52.3844 22.3186 53.1845 22.0883 55.0817 21.7555C57.1161 21.4018 57.4675 21.3626 59.5388 20.6129C61.6116 19.8662 62.8341 18.3743 62.8341 18.3743L61.5673 16.8974C61.5673 16.8974 58.6412 18.6046 56.2155 19.4326Z" fill="white"/>
</mask>
<g mask="url(#mask13_48_229)">
<path fill-rule="evenodd" clip-rule="evenodd" d="M50.9508 22.6674H62.8341V16.8984H50.9508V22.6674Z" fill="black"/>
</g>
<path fill-rule="evenodd" clip-rule="evenodd" d="M65.0923 27.4589C63.9776 27.9256 62.5618 28.4118 59.5677 28.6256C56.5736 28.8439 53.6475 28.0656 52.0604 27.9768C50.6195 27.9 48.0358 28.037 46.3174 28.32L45.1392 29.9896L44.8587 30.3855C45.904 30.2801 47.0349 30.1522 48.3503 29.9911H48.3665C48.4271 29.9835 48.4906 29.976 48.5526 29.9685C49.4709 29.8526 50.5693 29.8902 51.6441 29.9896H51.6529C53.0319 30.1145 54.368 30.3403 55.2361 30.4864C56.7789 30.7483 57.5525 30.789 59.1396 30.7483C60.7252 30.7032 62.581 30.378 64.0824 29.9896L64.0145 30.0137C65.4983 29.5906 67.4087 28.2387 67.4087 28.2387L67.1931 26.0844C67.1931 26.0844 66.2069 26.9937 65.0923 27.4589Z" fill="black"/>
<mask id="mask14_48_229" style="mask-type:alpha" maskUnits="userSpaceOnUse" x="44" y="26" width="24" height="5">
<path d="M65.0914 27.4584C63.9782 27.9251 62.5624 28.4113 59.5668 28.6266C56.5728 28.8434 53.6466 28.0651 52.061 27.9762C50.6186 27.901 48.0364 28.0365 46.318 28.3195L45.1398 29.989L44.8593 30.3865C45.9031 30.2811 47.034 30.1516 48.3509 29.9906H48.3672C48.4277 29.983 48.4912 29.9755 48.5532 29.968C49.4715 29.8521 50.5699 29.8912 51.6432 29.989H51.655C53.0325 30.114 54.3671 30.3398 55.2352 30.4859C56.7795 30.7478 57.5531 30.7885 59.1387 30.7478C60.7258 30.7041 62.5801 30.379 64.083 29.989L64.0137 30.0131C65.4989 29.5916 67.4093 28.2382 67.4093 28.2382L67.1937 26.0839C67.1937 26.0839 66.2075 26.9932 65.0914 27.4584Z" fill="white"/>
</mask>
<g mask="url(#mask14_48_229)">
<path fill-rule="evenodd" clip-rule="evenodd" d="M44.8593 30.7885H67.4093V26.0839H44.8593V30.7885Z" fill="black"/>
</g>
<path fill-rule="evenodd" clip-rule="evenodd" d="M53.7289 7.07758L53.9238 9.59774C55.3751 6.21043 55.2127 3.92212 55.2127 3.92212L53.4396 2.41364C53.4661 2.44073 53.7289 7.07758 53.7289 7.07758Z" fill="black"/>
<mask id="mask15_48_229" style="mask-type:alpha" maskUnits="userSpaceOnUse" x="53" y="2" width="3" height="8">
<path d="M53.7278 7.0772L53.9242 9.59736C55.3755 6.21005 55.2145 3.92174 55.2145 3.92174L53.4399 2.41476C53.4665 2.44036 53.7278 7.0772 53.7278 7.0772Z" fill="white"/>
</mask>
<g mask="url(#mask15_48_229)">
<path fill-rule="evenodd" clip-rule="evenodd" d="M53.4399 9.59736H55.3755V2.41476H53.4399V9.59736Z" fill="black"/>
</g>
<path fill-rule="evenodd" clip-rule="evenodd" d="M62.4596 20.5755C61.3258 21.283 59.3445 22.1502 57.4267 22.4648C55.5119 22.781 53.9883 22.781 52.7378 22.9375C51.9686 23.0354 51.2334 23.1844 50.4981 23.3275L49.6729 24.2744L48.8594 25.1927C49.4337 25.1069 49.9947 24.9805 50.7063 24.9097C52.2683 24.7501 53.4405 24.8314 55.5119 24.8314C57.5832 24.8314 58.9134 24.6312 61.0143 23.7671C63.1137 22.8999 64.9193 20.9624 64.9193 20.9624L63.812 19.5849C63.812 19.5849 63.5935 19.8649 62.4596 20.5755Z" fill="black"/>
<mask id="mask16_48_229" style="mask-type:alpha" maskUnits="userSpaceOnUse" x="48" y="19" width="17" height="7">
<path d="M62.459 20.5753C61.3266 21.2828 59.3438 22.15 57.4275 22.4646C55.5112 22.7808 53.9876 22.7808 52.7371 22.9388C51.9694 23.0352 51.2327 23.1857 50.4975 23.3273L49.6736 24.2742L48.8602 25.1925C49.4345 25.1067 49.994 24.9803 50.7056 24.9095C52.2676 24.7514 53.4398 24.8312 55.5112 24.8312C57.5825 24.8312 58.9127 24.6325 61.0136 23.7668C63.113 22.8997 64.9186 20.9622 64.9186 20.9622L63.8113 19.5847C63.8113 19.5847 63.5928 19.8662 62.459 20.5753Z" fill="white"/>
</mask>
<g mask="url(#mask16_48_229)">
<path fill-rule="evenodd" clip-rule="evenodd" d="M48.8592 25.194H64.9176V19.5847H48.8592V25.194Z" fill="black"/>
</g>
<path fill-rule="evenodd" clip-rule="evenodd" d="M62.9915 24.3567C61.2715 25.1832 58.3114 25.7358 56.4364 25.6966C54.56 25.656 52.5876 25.528 50.9459 25.6078C50.1206 25.6469 49.1801 25.7628 48.3032 25.8758L46.7781 27.6628C47.1988 27.5875 47.7421 27.4369 48.4227 27.3737C50.4956 27.1765 52.3853 27.4987 54.8095 27.6959C57.2307 27.8946 57.8966 27.9714 59.7346 27.6959C61.5712 27.4189 62.8896 26.7218 64.2951 25.8155C65.7036 24.9092 66.6396 23.9141 66.6396 23.9141L65.8202 22.231C65.8202 22.231 64.71 23.5272 62.9915 24.3567Z" fill="black"/>
<mask id="mask17_48_229" style="mask-type:alpha" maskUnits="userSpaceOnUse" x="46" y="22" width="21" height="6">
<path d="M62.9905 24.357C61.272 25.1835 58.3119 25.736 56.4369 25.6953C54.559 25.6562 52.5866 25.5282 50.9463 25.608C50.1211 25.6471 49.1806 25.7616 48.3037 25.876L46.7771 27.663C47.1993 27.5892 47.7426 27.4371 48.4232 27.3724C50.4961 27.1767 52.3843 27.4989 54.8085 27.6961C57.2312 27.8933 57.8971 27.9716 59.7337 27.6961C61.5703 27.4191 62.8887 26.722 64.2956 25.8142C65.7041 24.9095 66.6401 23.9143 66.6401 23.9143L65.8192 22.2312C65.8192 22.2312 64.709 23.5274 62.9905 24.357Z" fill="white"/>
</mask>
<g mask="url(#mask17_48_229)">
<path fill-rule="evenodd" clip-rule="evenodd" d="M46.7781 27.9716H66.6396V22.2312H46.7781V27.9716Z" fill="black"/>
</g>
<path fill-rule="evenodd" clip-rule="evenodd" d="M34.1154 12.0733C34.1154 12.0733 35.0913 13.2958 36.3034 15.1084C37.5155 16.9195 38.0234 17.9356 38.8058 18.9187C39.5868 19.9033 41.1016 21.1272 42.3904 21.8363C43.6808 22.5439 45.5174 22.9775 46.728 23.0964C47.6389 23.1852 48.4598 23.1611 49.4903 22.9805L51.411 20.79C50.9105 20.8683 50.4056 20.915 49.8845 20.93C45.166 21.0475 43.8757 20.0629 42.8599 19.5089C41.8427 18.9579 40.3575 17.4223 39.5765 16.4362C38.7955 15.4516 37.672 13.8468 37.204 13.0594C36.733 12.2706 35.0145 10.2623 35.0145 10.2623L34.1154 12.0733Z" fill="black"/>
<mask id="mask18_48_229" style="mask-type:alpha" maskUnits="userSpaceOnUse" x="34" y="10" width="18" height="14">
<path d="M34.1143 12.0739C34.1143 12.0739 35.0917 13.2963 36.3038 15.1089C37.5159 16.9185 38.0237 17.9347 38.8062 18.9178C39.5872 19.9039 41.1019 21.1263 42.3908 21.8369C43.6812 22.5444 45.5163 22.978 46.7284 23.097C47.6393 23.1858 48.4601 23.1617 49.4892 22.981L51.4114 20.7891C50.9109 20.8689 50.4045 20.9155 49.8848 20.9291C45.1664 21.0465 43.876 20.0619 42.8603 19.5094C41.8431 18.9584 40.3579 17.4228 39.5769 16.4368C38.7944 15.4522 37.6724 13.8474 37.2029 13.06C36.7334 12.2696 35.0149 10.2613 35.0149 10.2613L34.1143 12.0739Z" fill="white"/>
</mask>
<g mask="url(#mask18_48_229)">
<path fill-rule="evenodd" clip-rule="evenodd" d="M34.1153 23.1853H51.4109V10.2623H34.1153V23.1853Z" fill="black"/>
</g>
<path fill-rule="evenodd" clip-rule="evenodd" d="M32.8646 16.4368C32.8646 16.4368 34.31 17.9348 35.5619 19.4312C36.8124 20.9292 38.181 22.662 39.5762 23.6074C40.9713 24.5558 43.0589 25.5389 45.2454 25.5013C45.4742 25.4968 45.6854 25.4968 45.8832 25.4968C46.3128 25.4983 46.6878 25.4983 47.0717 25.4561L48.9245 23.5848C48.2188 23.6887 47.5766 23.7444 46.924 23.6857C44.1175 23.4343 42.0786 22.5054 40.4753 21.3612C38.8734 20.2201 36.461 17.5404 35.6402 16.5558C34.8193 15.5712 33.4124 14.1621 33.4124 14.1621L32.8646 16.4368Z" fill="black"/>
<mask id="mask19_48_229" style="mask-type:alpha" maskUnits="userSpaceOnUse" x="32" y="14" width="17" height="12">
<path d="M32.8654 16.4367C32.8654 16.4367 34.3107 17.9347 35.5627 19.4326C36.8117 20.929 38.1803 22.6618 39.5769 23.6058C40.9706 24.5542 43.0582 25.5388 45.2447 25.5012C45.4735 25.4966 45.6846 25.4966 45.8839 25.4966C46.3136 25.4981 46.6885 25.4981 47.0709 25.456L48.9252 23.5847C48.2181 23.6886 47.5758 23.7443 46.9248 23.6856C44.1182 23.4341 42.0779 22.5068 40.476 21.3626C38.8727 20.2185 36.4618 17.5402 35.6409 16.5557C34.8201 15.5711 33.4116 14.162 33.4116 14.162L32.8654 16.4367Z" fill="white"/>
</mask>
<g mask="url(#mask19_48_229)">
<path fill-rule="evenodd" clip-rule="evenodd" d="M32.8644 25.5388H48.9243V14.162H32.8644V25.5388Z" fill="black"/>
</g>
<path fill-rule="evenodd" clip-rule="evenodd" d="M50.3884 6.02485C50.3884 6.72941 50.9539 7.29998 51.6522 7.29998C52.349 7.29998 52.916 6.72941 52.916 6.02485C52.916 5.32179 52.349 4.75122 51.6522 4.75122C50.9539 4.75122 50.3884 5.32179 50.3884 6.02485Z" fill="black"/>
<mask id="mask20_48_229" style="mask-type:alpha" maskUnits="userSpaceOnUse" x="50" y="4" width="3" height="4">
<path d="M50.3883 6.02485C50.3883 6.72941 50.9538 7.29998 51.6521 7.29998C52.3489 7.29998 52.9158 6.72941 52.9158 6.02485C52.9158 5.32179 52.3489 4.75122 51.6521 4.75122C50.9538 4.75122 50.3883 5.32179 50.3883 6.02485Z" fill="white"/>
</mask>
<g mask="url(#mask20_48_229)">
<path fill-rule="evenodd" clip-rule="evenodd" d="M50.3883 7.29847H52.9158V4.75122H50.3883V7.29847Z" fill="black"/>
</g>
<path fill-rule="evenodd" clip-rule="evenodd" d="M32.618 21.5192C32.618 21.5192 34.5846 23.5697 35.8365 24.631C37.0855 25.6969 38.2194 26.5641 39.7725 27.3018C41.3242 28.0394 43.2346 28.0951 44.7611 28.0229L46.4914 26.1245L46.143 26.1711C45.1657 26.2886 43.5859 26.2058 41.4747 25.6518C39.365 25.1008 37.1638 23.097 35.9118 22.1124C34.6643 21.1263 32.618 18.6031 32.618 18.6031V21.5192Z" fill="black"/>
<mask id="mask21_48_229" style="mask-type:alpha" maskUnits="userSpaceOnUse" x="32" y="18" width="15" height="11">
<path d="M32.6173 21.5192C32.6173 21.5192 34.5838 23.5697 35.8358 24.6326C37.0863 25.6969 38.2201 26.5626 39.7718 27.3018C41.3249 28.0394 43.2338 28.0951 44.7604 28.0229L46.4922 26.1245L46.1423 26.1711C45.1664 26.2886 43.5852 26.2073 41.4755 25.6518C39.3643 25.1008 37.163 23.097 35.9111 22.1124C34.6635 21.1263 32.6173 18.6031 32.6173 18.6031V21.5192Z" fill="white"/>
</mask>
<g mask="url(#mask21_48_229)">
<path fill-rule="evenodd" clip-rule="evenodd" d="M32.6183 28.0966H46.4917V18.6031H32.6183V28.0966Z" fill="black"/>
</g>
<path fill-rule="evenodd" clip-rule="evenodd" d="M36.0328 8.45956C36.0328 8.45956 36.3429 8.84195 37.3202 10.4182C38.2976 11.9959 39.117 13.6293 40.3187 15.2673C41.178 16.437 42.6647 17.935 44.423 18.9978C46.1814 20.0622 48.0076 20.2203 49.8442 20.1811C50.5868 20.1646 51.229 20.1224 51.9111 19.9854C51.9111 19.9854 52.3348 19.3004 52.546 18.8307C52.794 18.2797 53.0435 17.3599 53.0435 17.3599C52.6759 17.4773 52.2758 17.5887 51.8388 17.6971C49.9476 18.1683 46.9638 17.8552 44.7744 16.3573C42.5864 14.8608 41.2961 12.9413 39.929 10.5778C38.5604 8.21266 37.3202 6.71472 37.3202 6.71472L36.0328 8.45956Z" fill="black"/>
<mask id="mask22_48_229" style="mask-type:alpha" maskUnits="userSpaceOnUse" x="36" y="6" width="18" height="15">
<path d="M36.0321 8.45916C36.0321 8.45916 36.3436 8.84155 37.3195 10.4178C38.2968 11.9955 39.1177 13.6289 40.3195 15.2684C41.1772 16.4366 42.6654 17.9346 44.4223 18.9975C46.1806 20.0618 48.0084 20.2184 49.845 20.1807C50.5876 20.1642 51.2283 20.1235 51.9119 19.9865C51.9119 19.9865 52.3356 19.3 52.5452 18.8303C52.7933 18.2793 53.0442 17.3595 53.0442 17.3595C52.6766 17.4784 52.2765 17.5883 51.8381 17.6967C49.9483 18.1694 46.9646 17.8563 44.7751 16.3569C42.5872 14.8604 41.2953 12.9409 39.9282 10.5789C38.5611 8.21227 37.3195 6.71432 37.3195 6.71432L36.0321 8.45916Z" fill="white"/>
</mask>
<g mask="url(#mask22_48_229)">
<path fill-rule="evenodd" clip-rule="evenodd" d="M36.0321 20.2199H53.0428V6.71432H36.0321V20.2199Z" fill="black"/>
</g>
<path fill-rule="evenodd" clip-rule="evenodd" d="M38.3621 5.50442C38.3621 5.50442 39.7882 7.6738 40.8896 9.5451C41.9939 11.4134 42.611 12.9595 44.0372 14.3957C45.4619 15.8319 47.3443 16.9731 49.2266 17.1071C50.5229 17.2019 51.9062 17.1146 53.1907 16.7141L53.4387 14.0615C53.1124 14.2361 52.7979 14.3792 52.5086 14.4785C51.1636 14.9392 50.0873 14.7766 48.7424 14.5598C47.3974 14.3415 45.5962 13.0664 44.6026 11.7657C44.0859 11.0912 43.4452 10.0856 42.8546 8.86463C42.2626 7.6452 41.8315 6.83375 41.2941 5.96509C40.7567 5.09794 39.9462 3.95529 39.9462 3.95529L38.3621 5.50442Z" fill="black"/>
<mask id="mask23_48_229" style="mask-type:alpha" maskUnits="userSpaceOnUse" x="38" y="3" width="16" height="15">
<path d="M38.3618 5.5039C38.3618 5.5039 39.7895 7.67479 40.8908 9.54458C41.9951 11.4129 42.6108 12.959 44.037 14.3952C45.4631 15.8329 47.344 16.9741 49.2264 17.1066C50.5241 17.2014 51.9075 17.1156 53.1904 16.7151L53.4384 14.061C53.1136 14.2356 52.7977 14.3771 52.5083 14.478C51.1634 14.9387 50.0871 14.7761 48.7436 14.5593C47.3972 14.341 45.596 13.0674 44.6009 11.7651C44.0857 11.0907 43.4449 10.085 42.8544 8.86411C42.2609 7.64468 41.8313 6.83323 41.2939 5.96457C40.7565 5.09742 39.9474 3.95477 39.9474 3.95477L38.3618 5.5039Z" fill="white"/>
</mask>
<g mask="url(#mask23_48_229)">
<path fill-rule="evenodd" clip-rule="evenodd" d="M38.3618 17.2014H53.4384V3.95477H38.3618V17.2014Z" fill="black"/>
</g>
<path fill-rule="evenodd" clip-rule="evenodd" d="M33.2604 25.3198C33.4258 26.0017 33.7225 27.0616 33.7225 27.0616C33.7225 27.0616 36.1246 28.6228 37.409 29.1873C38.0173 29.4568 38.661 29.7428 39.3445 29.9897C40.3425 30.345 41.4203 30.616 42.5822 30.616C42.5822 30.616 42.7416 30.348 43.0162 29.9927H43.0221C43.1211 29.8693 43.2347 29.7353 43.3617 29.5983C43.7529 29.1783 44.2741 28.5144 44.2741 28.5144C42.9808 28.5851 41.686 28.5294 40.7043 28.2825C39.3298 27.9348 36.6605 26.4428 35.5444 25.7503C34.4297 25.0578 32.847 23.4214 32.847 23.4214C32.847 23.4214 33.0818 24.5836 33.2604 25.3198Z" fill="black"/>
<mask id="mask24_48_229" style="mask-type:alpha" maskUnits="userSpaceOnUse" x="32" y="23" width="13" height="8">
<path d="M33.2609 25.3205C33.4263 26.0025 33.723 27.0608 33.723 27.0608C33.723 27.0608 36.1251 28.6235 37.408 29.188C38.0163 29.4575 38.66 29.7436 39.3435 29.9889C40.343 30.3442 41.4208 30.6152 42.5812 30.6152C42.5812 30.6152 42.7407 30.3472 43.0167 29.9935H43.0226C43.1216 29.87 43.2352 29.7345 43.3622 29.5975C43.752 29.1775 44.2746 28.5136 44.2746 28.5136C42.9813 28.5843 41.6851 28.5286 40.7033 28.2817C39.3303 27.9355 36.661 26.4436 35.5434 25.7495C34.4302 25.057 32.8461 23.4221 32.8461 23.4221C32.8461 23.4221 33.0823 24.5828 33.2609 25.3205Z" fill="white"/>
</mask>
<g mask="url(#mask24_48_229)">
<path fill-rule="evenodd" clip-rule="evenodd" d="M32.8461 30.6152H44.2731V23.4221H32.8461V30.6152Z" fill="black"/>
</g>
<path fill-rule="evenodd" clip-rule="evenodd" d="M41.1603 2.95666C41.1603 2.95666 42.0432 3.87801 43.1771 6.29128C44.1441 8.35076 44.7066 9.90591 45.6219 11.2247C46.6982 12.7708 48.1509 14.0429 51.083 13.9647C51.9186 13.9391 52.7085 13.7449 53.4333 13.3866L53.2695 10.8288C52.8694 11.1148 52.453 11.2819 51.9437 11.3602C51.2454 11.4701 50.5722 11.4701 49.3069 10.9808C48.0431 10.493 47.0481 9.4347 46.4029 8.07827C45.7592 6.72485 45.2203 5.63941 44.4408 4.12039C43.6613 2.60288 42.8537 1.73422 42.8537 1.73422L41.1603 2.95666Z" fill="black"/>
<mask id="mask25_48_229" style="mask-type:alpha" maskUnits="userSpaceOnUse" x="41" y="1" width="13" height="13">
<path d="M41.1596 2.95662C41.1596 2.95662 42.0439 3.87797 43.1763 6.28973C44.1433 8.35072 44.7058 9.90587 45.6227 11.2247C46.6989 12.7693 48.1517 14.0429 51.0822 13.9631C51.9193 13.939 52.7092 13.7448 53.4326 13.3865L53.2687 10.8287C52.8701 11.1148 52.4538 11.2819 51.9444 11.3602C51.2446 11.4701 50.5729 11.4701 49.3077 10.9808C48.0424 10.493 47.0473 9.43315 46.4037 8.07823C45.7585 6.72481 45.2196 5.63937 44.4401 4.12035C43.6606 2.60284 42.8545 1.73569 42.8545 1.73569L41.1596 2.95662Z" fill="white"/>
</mask>
<g mask="url(#mask25_48_229)">
<path fill-rule="evenodd" clip-rule="evenodd" d="M41.1606 14.0434H53.4336V1.73468H41.1606V14.0434Z" fill="black"/>
</g>
<path fill-rule="evenodd" clip-rule="evenodd" d="M28.6971 53.2753C26.8575 53.2949 25.6174 53.6035 24.237 54.832C22.6322 56.2622 22.0151 57.8007 22.1568 59.9566C22.1981 60.5768 22.2971 61.1037 22.4609 61.5795L22.4683 61.587H22.4609C22.7533 62.4557 23.2523 63.1738 23.986 64.0093C25.4609 65.6864 27.4688 66.2886 28.4889 66.6213C29.2463 66.8667 29.7497 66.9962 30.2709 67.6209C30.7861 68.2397 31.1803 68.7696 31.3604 69.42C31.4461 69.7316 31.4859 70.0703 31.4594 70.4633C31.3959 71.4674 31.1036 72.1253 30.355 72.7877C29.7379 73.3387 29.2271 73.569 28.4048 73.6112C27.4688 73.6579 26.8797 73.3763 26.1459 72.7877C25.2867 72.1057 24.7478 71.2476 24.7478 70.3368H21.3743C21.3743 72.3481 22.0505 73.8807 23.6066 75.3259C25.1228 76.7411 26.5106 77.2604 28.5746 77.1807C30.8408 77.0918 32.3777 76.3331 33.7536 74.519C34.8934 73.0165 35.23 71.7519 35.1178 69.8671C35.1075 69.7135 35.0956 69.5645 35.0809 69.42C34.8919 67.5863 34.2541 66.3292 32.8221 65.0421C32.0721 64.3661 31.5273 64.1222 30.6105 63.7037C29.8619 63.3635 29.4663 63.3604 28.6144 63.0172C27.7493 62.6634 26.9757 62.2253 26.4914 61.5795H26.4885C26.4899 61.581 26.4914 61.584 26.4914 61.584H26.4885V61.5795C26.1828 61.1745 25.9953 60.6867 25.9747 60.0906C25.9392 59.1316 26.2316 58.5128 26.8738 57.8023C27.4363 57.176 28.0047 56.8568 28.7429 56.7273C29.4663 56.5994 29.7173 56.5979 30.5691 56.7273V53.4966C29.9682 53.334 29.4914 53.2738 28.8241 53.2738C28.7827 53.2738 28.7414 53.2753 28.6971 53.2753Z" fill="black"/>
<mask id="mask26_48_229" style="mask-type:alpha" maskUnits="userSpaceOnUse" x="21" y="53" width="15" height="25">
<path d="M28.6961 53.2755C26.858 53.2936 25.6178 53.6037 24.2374 54.8321C22.6326 56.2623 22.0155 57.8009 22.1572 59.9568C22.1986 60.577 22.296 61.1039 22.4614 61.5797L22.4673 61.5857H22.4614C22.7537 62.4543 23.2527 63.174 23.9865 64.0095C25.4613 65.6866 27.4707 66.2873 28.4894 66.6215C29.2467 66.8669 29.7502 66.9963 30.2713 67.6211C30.7866 68.2399 31.1793 68.7698 31.3609 69.4186C31.4465 69.7303 31.4849 70.0705 31.4583 70.4634C31.3948 71.4676 31.104 72.124 30.3555 72.7879C29.7384 73.3389 29.2275 73.5692 28.4037 73.6114C27.4707 73.658 26.8801 73.375 26.1464 72.7879C25.2871 72.1059 24.7468 71.2463 24.7468 70.3355H21.3733C21.3733 72.3483 22.0509 73.8793 23.6056 75.3261C25.1233 76.7412 26.511 77.2591 28.575 77.1793C30.8397 77.092 32.3766 76.3333 33.7541 74.5192C34.8938 73.0167 35.2304 71.7521 35.1168 69.8658C35.1079 69.7122 35.0961 69.5647 35.0813 69.4186C34.8924 67.585 34.2531 66.3279 32.8225 65.0422C32.071 64.3663 31.5262 64.1224 30.6109 63.7024C29.8624 63.3636 29.4652 63.3606 28.6149 63.0174C27.7497 62.6636 26.9761 62.2255 26.4918 61.5797H26.4889C26.1833 61.1747 25.9973 60.6869 25.9736 60.0908C25.9397 59.1318 26.232 58.5115 26.8727 57.8024C27.4367 57.1762 28.0036 56.8555 28.7433 56.7275C29.4652 56.5981 29.7177 56.5981 30.5681 56.7275V53.4968C29.9687 53.3342 29.4903 53.274 28.826 53.274C28.7832 53.274 28.7418 53.2755 28.6961 53.2755Z" fill="white"/>
</mask>
<g mask="url(#mask26_48_229)">
<path fill-rule="evenodd" clip-rule="evenodd" d="M21.3733 77.2606H35.2304V53.274H21.3733V77.2606Z" fill="black"/>
</g>
<path fill-rule="evenodd" clip-rule="evenodd" d="M17.0925 53.3517L11.3657 61.5791L5.90903 69.4196L0.71814 76.8762L4.54044 76.8747L9.43164 69.9104L17.5088 69.8878L17.4512 76.8747H20.8764L20.8808 69.4196L20.8853 61.5791L20.8882 53.3065L17.0925 53.3517ZM11.9296 66.1798L15.3533 61.5791L17.2327 59.0499V61.5791V66.1873L11.9296 66.1798Z" fill="black"/>
<mask id="mask27_48_229" style="mask-type:alpha" maskUnits="userSpaceOnUse" x="0" y="53" width="21" height="24">
<path d="M17.0933 53.3523L11.3665 61.5797L5.90841 69.4186L0.718994 76.8767L4.53982 76.8752L9.43101 69.9109L17.5082 69.8883L17.4506 76.8752H20.8758L20.8802 69.4186L20.8846 61.5797L20.8891 53.3056L17.0933 53.3523ZM11.9305 66.1804L15.3542 61.5797L17.2336 59.0505V61.5797V66.1879L11.9305 66.1804Z" fill="white"/>
</mask>
<g mask="url(#mask27_48_229)">
<path fill-rule="evenodd" clip-rule="evenodd" d="M0.718994 76.8752H20.8891V53.3056H0.718994V76.8752Z" fill="black"/>
</g>
<path fill-rule="evenodd" clip-rule="evenodd" d="M46.4012 53.4135V61.5791V69.4196V76.8416H57.9774V73.8246H49.8204V69.4196V66.5878H57.9774V63.0199H49.8204V61.5791V56.6412H57.9774V53.4135H46.4012Z" fill="black"/>
<mask id="mask28_48_229" style="mask-type:alpha" maskUnits="userSpaceOnUse" x="46" y="53" width="12" height="24">
<path d="M46.4021 53.4125V61.5797V69.4187V76.8407H57.9783V73.8237H49.8199V69.4187V66.5869H57.9783V63.0189H49.8199V61.5797V56.6403H57.9783V53.4125H46.4021Z" fill="white"/>
</mask>
<g mask="url(#mask28_48_229)">
<path fill-rule="evenodd" clip-rule="evenodd" d="M46.4011 76.8417H57.9773V53.4135H46.4011V76.8417Z" fill="black"/>
</g>
<path fill-rule="evenodd" clip-rule="evenodd" d="M64.8083 53.3221H59.142L59.1479 61.5781L59.1538 69.4186L59.1582 76.8255H62.5686V69.4186V66.8562H63.0676L64.4746 69.4186L68.5375 76.8255L72.3097 76.8405L68.4667 69.4186L66.729 66.0719C68.1965 65.6895 69.4175 65.4968 70.6827 64.3918C71.5626 63.624 72.038 63.073 72.4661 61.9815C72.5193 61.8445 72.568 61.7121 72.6094 61.5796C72.9681 60.4716 72.9223 59.5562 72.6787 58.403C72.3037 56.6326 71.3766 55.3996 69.8677 54.3759C68.3574 53.3477 67.2206 53.3221 65.1434 53.3221H64.8083ZM62.638 61.5781L62.6188 56.4821H64.6296C65.8314 56.4821 66.6995 56.2848 67.7063 56.9713C68.6527 57.6142 69.1871 58.3097 69.2861 59.4554C69.3614 60.3135 69.196 60.9367 68.7309 61.5751H68.728C68.6571 61.6684 68.5804 61.7632 68.4992 61.8596C67.7167 62.7508 67.0302 62.9119 65.6704 62.9119H62.6454L62.638 61.5781Z" fill="black"/>
<mask id="mask29_48_229" style="mask-type:alpha" maskUnits="userSpaceOnUse" x="59" y="53" width="14" height="24">
<path d="M64.8095 53.3221H59.1417L59.1491 61.5796L59.155 69.4186L59.1594 76.8255H62.5684V69.4186V66.8563H63.0689L64.4743 69.4186L68.5373 76.8255L72.3094 76.8405L68.4664 69.4186L66.7302 66.0719C68.1977 65.6895 69.4172 65.4968 70.6825 64.3903C71.5624 63.624 72.0378 63.073 72.4644 61.9815C72.5191 61.8445 72.5692 61.7121 72.6091 61.5811C72.9679 60.4716 72.9221 59.5562 72.6785 58.403C72.3035 56.6326 71.3763 55.3996 69.869 54.3759C68.3572 53.3462 67.2219 53.3221 65.1417 53.3221H64.8095ZM62.6392 61.5796L62.6171 56.4821H64.6294C65.8311 56.4821 66.6992 56.2848 67.7061 56.9713C68.651 57.6142 69.1869 58.3082 69.2858 59.4569C69.3626 60.312 69.1958 60.9352 68.7307 61.5751H68.7278C68.6569 61.6684 68.5816 61.7632 68.4989 61.8596C67.7179 62.7493 67.0299 62.9119 65.6717 62.9119H62.6451L62.6392 61.5796Z" fill="white"/>
</mask>
<g mask="url(#mask29_48_229)">
<path fill-rule="evenodd" clip-rule="evenodd" d="M59.1417 76.8405H72.9679V53.3221H59.1417V76.8405Z" fill="black"/>
</g>
<path fill-rule="evenodd" clip-rule="evenodd" d="M79.189 61.5789L79.1949 69.4194L79.1979 76.8745H82.6216L82.5655 69.8891L90.6427 69.9102L95.5339 76.8745L99.3532 76.876L94.1667 69.4194L88.7101 61.5789L82.9818 53.3515L79.1846 53.3063L79.189 61.5789ZM82.8401 61.5789V59.0497L84.721 61.5789L88.1432 66.1811L82.8401 66.1886V61.5789Z" fill="black"/>
<mask id="mask30_48_229" style="mask-type:alpha" maskUnits="userSpaceOnUse" x="79" y="53" width="21" height="24">
<path d="M79.1892 61.5797L79.1951 69.4186L79.1995 76.8752H82.6217L82.5641 69.8883L90.6428 69.9109L95.534 76.8752L99.3534 76.8767L94.1669 69.4186L88.7102 61.5797L82.982 53.3523L79.1848 53.3056L79.1892 61.5797ZM82.8402 61.5797V59.0505L84.7211 61.5797L88.1433 66.1804L82.8402 66.1879V61.5797Z" fill="white"/>
</mask>
<g mask="url(#mask30_48_229)">
<path fill-rule="evenodd" clip-rule="evenodd" d="M79.1848 76.8752H99.3548V53.3056H79.1848V76.8752Z" fill="black"/>
</g>
<path fill-rule="evenodd" clip-rule="evenodd" d="M74.3368 53.3281V61.5781V69.4186V76.7833H77.6262V69.4186V61.5781V53.3221L74.3368 53.3281Z" fill="black"/>
<mask id="mask31_48_229" style="mask-type:alpha" maskUnits="userSpaceOnUse" x="74" y="53" width="4" height="24">
<path d="M74.3364 53.3281V61.5796V69.4186V76.7833H77.6258V69.4186V61.5796V53.3221L74.3364 53.3281Z" fill="white"/>
</mask>
<g mask="url(#mask31_48_229)">
<path fill-rule="evenodd" clip-rule="evenodd" d="M74.3364 76.7833H77.6258V53.3221H74.3364V76.7833Z" fill="black"/>
</g>
<path fill-rule="evenodd" clip-rule="evenodd" d="M31.5043 53.2827V56.6398H36.4973L36.4959 61.5793L36.4929 69.4198L36.4885 76.8402H40.4702L40.4732 69.4198L40.4761 61.5793L40.4791 56.6398H45.2285V53.2827H31.5043Z" fill="black"/>
<mask id="mask32_48_229" style="mask-type:alpha" maskUnits="userSpaceOnUse" x="31" y="53" width="15" height="24">
<path d="M31.5041 53.283V56.6402H36.4972L36.4957 61.5796L36.4927 69.4186L36.4898 76.8405H40.47L40.473 69.4186L40.4774 61.5796L40.4804 56.6402H45.2284V53.283H31.5041Z" fill="white"/>
</mask>
<g mask="url(#mask32_48_229)">
<path fill-rule="evenodd" clip-rule="evenodd" d="M31.5041 76.8405H45.2284V53.283H31.5041V76.8405Z" fill="black"/>
</g>
<mask id="mask33_48_229" style="mask-type:alpha" maskUnits="userSpaceOnUse" x="0" y="80" width="100" height="2">
<path d="M0.0724487 80.0841H100V81.5896H0.0724487V80.0841Z" fill="white"/>
</mask>
<g mask="url(#mask33_48_229)">
<path d="M0.0724487 80.8369H100" stroke="black" stroke-width="0.802"/>
</g>
<path fill-rule="evenodd" clip-rule="evenodd" d="M6.15803 84.7137H4.48679L1.27127 88.2019V84.7137H0.00012207V93.4635H1.27127V89.8413L1.52078 89.5794L4.48679 93.4635H6.18313L2.40512 88.6746L6.15803 84.7137Z" fill="black"/>
<path fill-rule="evenodd" clip-rule="evenodd" d="M9.32504 88.7273V85.9452H9.76057C10.3851 85.9452 11.4938 86.0626 11.4938 87.2971C11.4938 88.6881 10.0736 88.7273 9.72514 88.7273H9.32504ZM12.7148 87.2835C12.7148 86.9041 12.641 85.8684 11.73 85.224C11.1956 84.8447 10.5475 84.7137 9.53764 84.7137H8.05389V93.4635H9.32504V89.882H9.54945L11.9308 93.4635H13.4633L10.8708 89.7239C11.9795 89.4619 12.7148 88.5436 12.7148 87.2835Z" fill="black"/>
<path fill-rule="evenodd" clip-rule="evenodd" d="M15.4575 93.4628H20.0445V92.2027H16.7286V89.3167H19.9456V88.0581H16.7286V85.9716H20.0445V84.713H15.4575V93.4628Z" fill="black"/>
<path fill-rule="evenodd" clip-rule="evenodd" d="M26.8271 90.8519L23.9349 84.0577L22.1899 93.4623H23.4861L24.3587 88.1766L26.7518 93.8688L29.1701 88.1887L30.019 93.4623H31.3153L29.7444 84.0577L26.8271 90.8519Z" fill="black"/>
<path fill-rule="evenodd" clip-rule="evenodd" d="M35.0791 84.7137H33.8079V93.4635H37.5225V92.2034H35.0791V84.7137Z" fill="black"/>
<mask id="mask34_48_229" style="mask-type:alpha" maskUnits="userSpaceOnUse" x="0" y="0" width="100" height="94">
<path d="M0 94H100V0H0V94Z" fill="white"/>
</mask>
<g mask="url(#mask34_48_229)">
<path fill-rule="evenodd" clip-rule="evenodd" d="M39.4676 93.4626H40.7387V84.7128H39.4676V93.4626Z" fill="black"/>
<path fill-rule="evenodd" clip-rule="evenodd" d="M49.5147 90.7738L43.4822 84.1227V93.4626H44.7519V87.3504L50.7858 94V84.7143H49.5147V90.7738Z" fill="black"/>
<path fill-rule="evenodd" clip-rule="evenodd" d="M59.0275 88.6744H58.4532V85.9465H59.0142C60.461 85.9465 60.647 86.8121 60.647 87.2969C60.647 88.1098 60.1244 88.6744 59.0275 88.6744ZM60.8345 85.1862C60.2351 84.7647 59.525 84.7135 59.0142 84.7135H57.182V93.4633H58.4532V89.9074H59.0275C59.6387 89.9074 60.3975 89.8155 61.0589 89.2254C61.744 88.6097 61.8695 87.8223 61.8695 87.3104C61.8695 86.511 61.5328 85.671 60.8345 85.1862Z" fill="black"/>
<path fill-rule="evenodd" clip-rule="evenodd" d="M65.3965 90.0916L66.681 87.1274L67.9152 90.0916H65.3965ZM62.5914 93.4624H63.963L64.8739 91.3502H68.426L69.2986 93.4624H70.6701L66.7297 84.2022L62.5914 93.4624Z" fill="black"/>
<path fill-rule="evenodd" clip-rule="evenodd" d="M73.7364 84.7137H72.4652V93.4635H76.1797V92.2034H73.7364V84.7137Z" fill="black"/>
<path fill-rule="evenodd" clip-rule="evenodd" d="M79.982 90.0916L81.2665 87.1274L82.5007 90.0916H79.982ZM77.1769 93.4624H78.5485L79.4594 91.3502H83.0115L83.8841 93.4624H85.2556L81.3152 84.2022L77.1769 93.4624Z" fill="black"/>
<path fill-rule="evenodd" clip-rule="evenodd" d="M87.7978 85.6971C87.0995 86.3926 86.4647 87.5067 86.4647 89.1191C86.4647 90.3535 86.8264 91.4676 87.7978 92.4266C88.285 92.9113 89.2314 93.6324 90.7402 93.6324C91.313 93.6324 92.187 93.5015 93.0212 92.9761V91.3893C92.5473 91.862 91.7751 92.3995 90.7786 92.3995C89.007 92.3995 87.7358 90.9708 87.7358 89.1191C87.7358 87.192 88.9568 85.7889 90.7653 85.7889C91.2392 85.7889 92.0985 85.8808 93.0212 86.76V85.1853C92.2978 84.7005 91.5625 84.556 90.8022 84.556C89.6566 84.556 88.6585 84.845 87.7978 85.6971Z" fill="black"/>
<path fill-rule="evenodd" clip-rule="evenodd" d="M99.9274 85.9721V84.7135H95.3403V93.4633H99.9274V92.2032H96.6115V89.3172H99.8284V88.0587H96.6115V85.9721H99.9274Z" fill="black"/>
</g>
</svg>
