<svg width="83" height="77" viewBox="0 0 83 77" fill="none" xmlns="http://www.w3.org/2000/svg">
<path fill-rule="evenodd" clip-rule="evenodd" d="M40.5103 36.3651C40.5103 36.9423 40.9734 37.4084 41.5455 37.4084C42.1175 37.4084 42.5807 36.9423 42.5807 36.3651C42.5807 35.788 42.1175 35.3206 41.5455 35.3206C40.9734 35.3206 40.5103 35.788 40.5103 36.3651Z" fill="#074A81"/>
<mask id="mask0" mask-type="alpha" maskUnits="userSpaceOnUse" x="40" y="35" width="3" height="3">
<path d="M40.5105 36.3647C40.5105 36.9418 40.9737 37.408 41.5457 37.408C42.1177 37.408 42.5809 36.9418 42.5809 36.3647C42.5809 35.7876 42.1177 35.3202 41.5457 35.3202C40.9737 35.3202 40.5105 35.7876 40.5105 36.3647Z" fill="white"/>
</mask>
<g mask="url(#mask0)">
<path fill-rule="evenodd" clip-rule="evenodd" d="M40.5105 37.4078H42.5809V35.3212H40.5105V37.4078Z" fill="#074A81"/>
</g>
<path fill-rule="evenodd" clip-rule="evenodd" d="M36.78 0.756251C36.78 0.756251 37.9253 2.62085 38.6751 4.50889C39.2858 6.05039 39.6402 6.92597 40.3271 7.88417C40.8991 8.68452 41.8025 8.92869 42.6841 8.92869C43.0046 8.92869 43.6178 8.87813 44.1559 8.44774L44.1027 7.25277L44.0761 6.14905C43.8125 6.39323 43.4992 6.69043 43.3009 6.75085C42.949 6.86184 42.5741 6.92967 42.0674 6.72989C41.5606 6.52888 41.1857 5.7088 41.0527 5.41899C40.8229 4.91585 40.1058 3.23746 39.7103 2.37545C39.1588 1.17554 38.3885 0.000297546 38.3885 0.000297546L36.78 0.756251Z" fill="#074A81"/>
<mask id="mask1" mask-type="alpha" maskUnits="userSpaceOnUse" x="36" y="0" width="9" height="9">
<path d="M38.3868 0.000801086L36.7808 0.755522C36.7808 0.755522 37.9248 2.62013 38.6758 4.50816C39.2853 6.04966 39.6397 6.92647 40.3266 7.88344C40.8986 8.68379 41.802 8.92796 42.6837 8.92796C43.0053 8.92796 43.6173 8.87863 44.1554 8.44701L44.1022 7.25204L44.0756 6.14955C43.8132 6.39373 43.4988 6.6897 43.3016 6.75012C42.9497 6.86111 42.5736 6.92894 42.0681 6.72916C41.5602 6.52815 41.1853 5.70807 41.0522 5.41826C40.8224 4.91635 40.1053 3.23673 39.7098 2.37595C39.168 1.19578 38.4158 0.0402636 38.3892 0.000801086H38.3868Z" fill="white"/>
</mask>
<g mask="url(#mask1)">
<path fill-rule="evenodd" clip-rule="evenodd" d="M36.7798 8.9282H44.1557V-0.000198364H36.7798V8.9282Z" fill="#074A81"/>
</g>
<path fill-rule="evenodd" clip-rule="evenodd" d="M29.1446 24.5653H29.1458C29.2631 24.7836 29.3901 25.013 29.5014 25.2029C29.7614 25.6432 30.2028 26.3115 30.2028 26.3115C30.2028 26.3115 31.3372 26.6026 32.0749 26.7444C32.8126 26.8862 33.6834 26.9208 34.1756 26.9208C34.3122 26.9208 34.461 26.9688 34.6617 26.9577C34.6617 26.9577 34.7633 26.4891 34.8734 26.2067C34.9846 25.9256 35.2205 25.5149 35.2205 25.5149L34.9484 25.505C34.0353 25.4693 32.8066 25.2572 32.0398 25.0426C31.5609 24.9119 31.105 24.7232 30.718 24.5653H30.7132C30.4834 24.4704 30.2766 24.3878 30.1073 24.3347C29.6501 24.1929 28.7383 23.7872 28.7383 23.7872C28.7383 23.7872 28.9257 24.1571 29.1446 24.5653Z" fill="#074A81"/>
<mask id="mask2" mask-type="alpha" maskUnits="userSpaceOnUse" x="28" y="23" width="8" height="4">
<path d="M29.1449 24.5653H29.1461C29.2622 24.7836 29.3904 25.013 29.5004 25.2029C29.7616 25.6432 30.2031 26.3115 30.2031 26.3115C30.2031 26.3115 31.3374 26.6038 32.0751 26.7444C32.8129 26.8862 33.6836 26.9208 34.1758 26.9208C34.3125 26.9208 34.4612 26.9688 34.6608 26.959C34.6608 26.959 34.7636 26.4891 34.8736 26.2067C34.9849 25.9256 35.2207 25.5149 35.2207 25.5149L34.9486 25.505C34.0355 25.4705 32.8068 25.2572 32.0389 25.0413C31.56 24.9119 31.104 24.7232 30.7182 24.5653H30.7134C30.4836 24.4704 30.2768 24.3878 30.1087 24.3335C29.6504 24.1929 28.7373 23.7872 28.7373 23.7872C28.7373 23.7872 28.9248 24.1571 29.1449 24.5653Z" fill="white"/>
</mask>
<g mask="url(#mask2)">
<path fill-rule="evenodd" clip-rule="evenodd" d="M28.7373 26.9688H35.2195V23.7872H28.7373V26.9688Z" fill="#074A81"/>
</g>
<path fill-rule="evenodd" clip-rule="evenodd" d="M33.965 30.4629L34.9857 30.9956L34.7027 29.7896L33.965 30.4629Z" fill="#074A81"/>
<mask id="mask3" mask-type="alpha" maskUnits="userSpaceOnUse" x="33" y="29" width="2" height="2">
<path d="M33.9642 30.4626L34.9849 30.9953L34.7032 29.7905L33.9642 30.4626Z" fill="white"/>
</mask>
<g mask="url(#mask3)">
<path fill-rule="evenodd" clip-rule="evenodd" d="M33.9652 30.9956H34.9859V29.7895H33.9652V30.9956Z" fill="#074A81"/>
</g>
<path fill-rule="evenodd" clip-rule="evenodd" d="M34.0354 27.5595C33.6496 27.631 33.2276 27.8073 32.8418 27.9479C32.1984 28.1847 31.6155 28.0873 31.6155 28.0873L32.9821 29.5375C32.9821 29.5375 33.6146 29.2958 34.316 28.9394C34.4321 28.8815 34.4998 28.8839 34.6086 28.8371V28.2205C34.6038 27.9171 34.582 27.4411 34.582 27.4411L34.0354 27.5595Z" fill="#074A81"/>
<mask id="mask4" mask-type="alpha" maskUnits="userSpaceOnUse" x="31" y="27" width="4" height="3">
<path d="M34.0355 27.5595C33.6485 27.6298 33.2277 27.8074 32.8419 27.9492C32.1985 28.1836 31.6156 28.0861 31.6156 28.0861L32.9834 29.5364C32.9834 29.5364 33.6135 29.2959 34.3161 28.9395C34.4322 28.8815 34.4999 28.884 34.6076 28.8371V28.2205C34.6039 27.9159 34.5822 27.4412 34.5822 27.4412L34.0355 27.5595Z" fill="white"/>
</mask>
<g mask="url(#mask4)">
<path fill-rule="evenodd" clip-rule="evenodd" d="M31.6156 29.5364H34.6088V27.4412H31.6156V29.5364Z" fill="#074A81"/>
</g>
<path fill-rule="evenodd" clip-rule="evenodd" d="M38.6382 34.2481L39.3759 35.3087C39.3759 35.3087 39.5174 35.1323 39.7629 34.9202C40.0084 34.7069 40.5707 34.3184 41.5818 34.3542C42.594 34.3887 43.7961 36.0893 43.7961 36.0893L45.026 35.4517C45.026 35.4517 44.7104 34.8857 44.0779 34.2481C43.4454 33.6081 42.7065 32.9014 41.1331 32.8312C41.0968 32.8275 41.0605 32.8275 41.0243 32.8275C39.5162 32.8275 38.6382 34.2481 38.6382 34.2481Z" fill="#074A81"/>
<mask id="mask5" mask-type="alpha" maskUnits="userSpaceOnUse" x="38" y="32" width="8" height="5">
<path d="M38.6384 34.2486L39.3761 35.3091C39.3761 35.3091 39.5164 35.1315 39.7643 34.9194C40.0086 34.7073 40.571 34.3189 41.582 34.3534C42.5942 34.3892 43.7964 36.0897 43.7964 36.0897L45.0263 35.4522C45.0263 35.4522 44.7094 34.8861 44.0781 34.2486C43.4444 33.6085 42.7067 32.9019 41.1333 32.8316C41.0971 32.8267 41.0608 32.8267 41.0245 32.8267C39.5164 32.8267 38.6384 34.2486 38.6384 34.2486Z" fill="white"/>
</mask>
<g mask="url(#mask5)">
<path fill-rule="evenodd" clip-rule="evenodd" d="M38.6384 36.0897H45.0263V32.8267H38.6384V36.0897Z" fill="#074A81"/>
</g>
<path fill-rule="evenodd" clip-rule="evenodd" d="M36.477 27.2041C36.477 27.2041 36.3996 27.6258 36.3936 27.8983C36.3887 28.108 36.4202 28.4348 36.4202 28.4348C37.0454 28.383 37.7565 28.2671 38.8147 28.2671C40.0797 28.2671 41.1681 28.3731 41.5116 28.4459C42.1405 28.5741 43.6207 28.7986 44.6402 29.081C45.6585 29.3659 46.4204 29.6273 47.6975 29.8974C49.208 30.2155 49.809 30.2957 51.1732 30.3241C52.0983 30.3413 53.5423 30.2081 53.5423 30.2081C53.5423 30.2081 54.0539 29.705 54.3417 29.3486C54.638 28.9811 55.0359 28.3546 55.0359 28.3546C55.0359 28.3546 53.8398 28.5667 53.0695 28.621C51.646 28.7209 50.9216 28.5865 49.4172 28.4459C47.9152 28.3041 46.5377 27.9489 45.413 27.6653C44.2871 27.3829 43.0245 27.2041 41.1331 27.1338C40.7848 27.1202 40.4026 27.1153 40.0096 27.1153C38.5958 27.1153 37.0551 27.1831 36.477 27.2041Z" fill="#074A81"/>
<mask id="mask6" mask-type="alpha" maskUnits="userSpaceOnUse" x="36" y="27" width="20" height="4">
<path d="M36.4761 27.2045C36.4761 27.2045 36.3999 27.6262 36.3926 27.8988C36.389 28.1084 36.4204 28.4352 36.4204 28.4352C37.0445 28.3822 37.7568 28.2675 38.815 28.2675C40.08 28.2675 41.1672 28.3735 41.5119 28.4463C42.1395 28.5746 43.621 28.799 44.6393 29.0814C45.6588 29.3663 46.4207 29.6265 47.6977 29.8966C49.2082 30.216 49.8093 30.2949 51.1722 30.3232C52.0986 30.3417 53.5426 30.2073 53.5426 30.2073C53.5426 30.2073 54.0541 29.7054 54.342 29.349C54.6383 28.9815 55.0361 28.3538 55.0361 28.3538C55.0361 28.3538 53.8401 28.5672 53.0697 28.6214C51.6475 28.7213 50.9207 28.5869 49.4174 28.4463C47.9154 28.3033 46.538 27.9493 45.4133 27.6657C44.2873 27.3833 43.0236 27.2045 41.1333 27.1342C40.785 27.1194 40.4029 27.1157 40.0098 27.1157C38.5961 27.1157 37.0554 27.1835 36.4761 27.2045Z" fill="white"/>
</mask>
<g mask="url(#mask6)">
<path fill-rule="evenodd" clip-rule="evenodd" d="M36.3885 30.341H55.0357V27.1149H36.3885V30.341Z" fill="#074A81"/>
</g>
<path fill-rule="evenodd" clip-rule="evenodd" d="M53.8734 25.6107C52.7137 25.9646 50.8162 26.0374 49.6649 26.0004C48.5124 25.9646 45.4128 25.3974 44.3933 25.221C43.375 25.0422 41.8633 25.0089 40.9224 25.0089C39.9803 25.0089 37.6922 25.3024 37.0585 25.3739C37.0585 25.3739 36.8807 25.7858 36.7791 26.0522C36.6703 26.3395 36.5264 26.7958 36.5264 26.7958C37.4044 26.7255 38.604 26.6725 40.2185 26.6034C41.8367 26.5307 42.3204 26.5307 43.5153 26.638C44.7101 26.744 46.5725 27.1337 47.6622 27.3446C48.7506 27.5592 49.9442 27.6652 50.8863 27.6652C51.8284 27.6652 52.9241 27.4864 53.8734 27.2398C54.8228 26.9931 55.621 26.5023 55.621 26.5023L55.8084 24.8104C55.8084 24.8104 55.032 25.2568 53.8734 25.6107Z" fill="#074A81"/>
<mask id="mask7" mask-type="alpha" maskUnits="userSpaceOnUse" x="36" y="24" width="20" height="4">
<path d="M53.8726 25.6113C52.714 25.9652 50.8165 26.0379 49.664 26.0009C48.5127 25.9652 45.4131 25.3967 44.3936 25.2203C43.3753 25.0415 41.8636 25.0082 40.9228 25.0082C39.9807 25.0082 37.6913 25.303 37.0589 25.3745C37.0589 25.3745 36.8799 25.7851 36.7795 26.0527C36.6706 26.3388 36.5267 26.7951 36.5267 26.7951C37.4035 26.7261 38.6032 26.673 40.2189 26.604C41.8358 26.5312 42.3208 26.5312 43.5144 26.6385C44.7093 26.7446 46.5729 27.1343 47.6625 27.3451C48.751 27.5597 49.9446 27.6658 50.8867 27.6658C51.8288 27.6658 52.9245 27.487 53.8726 27.2403C54.822 26.9937 55.6213 26.5016 55.6213 26.5016L55.8076 24.8097C55.8076 24.8097 55.0324 25.2573 53.8726 25.6113Z" fill="white"/>
</mask>
<g mask="url(#mask7)">
<path fill-rule="evenodd" clip-rule="evenodd" d="M36.5267 27.6645H55.8076V24.8097H36.5267V27.6645Z" fill="#074A81"/>
</g>
<path fill-rule="evenodd" clip-rule="evenodd" d="M37.935 28.9757C37.2674 29.0472 36.4946 29.1878 36.4946 29.1878L36.9167 30.5702C36.9167 30.5702 37.444 30.4629 38.322 30.3568C39.2012 30.2508 39.6898 30.1694 40.7467 30.2508C41.6538 30.3211 43.024 30.6417 43.902 31.0314C44.5224 31.3064 45.9047 31.9797 46.6073 32.2979C47.31 32.6161 47.9424 32.6531 48.5749 32.7591C49.2074 32.8652 50.4785 32.7961 50.4785 32.7961L52.0773 31.5321C52.0773 31.5321 51.556 31.59 50.8522 31.5555C50.1495 31.5198 48.9619 31.2078 47.6969 30.8908C46.432 30.5702 45.4826 30.109 44.4292 29.7205C43.3747 29.3296 41.9682 28.9399 40.9922 28.8696C40.7661 28.8523 40.517 28.8474 40.2582 28.8474C39.4007 28.8474 38.449 28.9214 37.935 28.9757Z" fill="#074A81"/>
<mask id="mask8" mask-type="alpha" maskUnits="userSpaceOnUse" x="36" y="28" width="17" height="5">
<path d="M37.9357 28.9753C37.2681 29.0468 36.4954 29.1874 36.4954 29.1874L36.9162 30.5698C36.9162 30.5698 37.4435 30.4626 38.3227 30.3577C39.2007 30.2504 39.6893 30.169 40.7463 30.2504C41.6533 30.3207 43.0235 30.6414 43.9015 31.0311C44.5219 31.3061 45.9042 31.9782 46.608 32.2988C47.3095 32.6157 47.942 32.654 48.5757 32.76C49.2082 32.8661 50.478 32.7958 50.478 32.7958L52.078 31.533C52.078 31.533 51.5555 31.5897 50.8517 31.5552C50.1491 31.5194 48.9615 31.2074 47.6977 30.8892C46.4315 30.5698 45.4833 30.1086 44.4288 29.7202C43.3754 29.3292 41.9689 28.9395 40.993 28.8693C40.7656 28.8532 40.5165 28.8471 40.2589 28.8471C39.4015 28.8471 38.4485 28.921 37.9357 28.9753Z" fill="white"/>
</mask>
<g mask="url(#mask8)">
<path fill-rule="evenodd" clip-rule="evenodd" d="M36.4944 32.8661H52.077V28.8471H36.4944V32.8661Z" fill="#074A81"/>
</g>
<path fill-rule="evenodd" clip-rule="evenodd" d="M37.3374 31.625L37.9385 32.9026C37.9385 32.9026 38.4972 32.6165 38.8491 32.5116C39.201 32.4056 40.1492 32.2625 40.6402 32.2625C41.1336 32.2625 41.9693 32.4056 42.8122 32.6892C43.6563 32.9728 44.2876 33.4316 44.7798 33.7152C45.272 33.9989 46.5261 34.8905 46.5261 34.8905L48.2591 34.1382C48.2591 34.1382 48.0124 33.9274 47.6968 33.7868C47.3811 33.6449 46.2552 32.831 45.6578 32.5449C45.0604 32.2625 44.1485 31.6953 43.3745 31.4116C42.6018 31.1292 41.2025 30.89 39.7985 30.853H39.7078C38.3472 30.853 37.3374 31.625 37.3374 31.625Z" fill="#074A81"/>
<mask id="mask9" mask-type="alpha" maskUnits="userSpaceOnUse" x="37" y="30" width="12" height="5">
<path d="M39.7087 30.8536C38.3482 30.8536 37.3372 31.6243 37.3372 31.6243L37.9382 32.9032C37.9382 32.9032 38.4969 32.6158 38.8501 32.511C39.2008 32.4049 40.1489 32.2619 40.6411 32.2619C41.1333 32.2619 41.969 32.4049 42.8119 32.6898C43.6561 32.9735 44.2874 33.4322 44.7808 33.7158C45.2718 33.9982 46.5259 34.8911 46.5259 34.8911L48.2601 34.1388C48.2601 34.1388 48.0134 33.928 47.6978 33.7861C47.3809 33.6443 46.255 32.8316 45.6588 32.5443C45.0614 32.2619 44.1483 31.6946 43.3755 31.4122C42.6015 31.1286 41.2023 30.8893 39.7982 30.8536H39.7087Z" fill="white"/>
</mask>
<g mask="url(#mask9)">
<path fill-rule="evenodd" clip-rule="evenodd" d="M37.3372 34.8911H48.2589V30.8536H37.3372V34.8911Z" fill="#074A81"/>
</g>
<path fill-rule="evenodd" clip-rule="evenodd" d="M47.6914 12.4092C46.9017 12.8766 46.1797 13.4242 44.8458 13.936C44.8458 13.936 44.7515 14.7005 44.581 15.1581C44.4334 15.5564 44.0754 16.1237 44.0754 16.1237C44.6958 15.9251 45.3961 15.6156 46.3793 15.1753C48.2756 14.3244 50.6386 12.5424 50.6386 12.5424L50.0702 10.6889C50.0702 10.6889 48.7799 11.763 47.6914 12.4092Z" fill="#074A81"/>
<mask id="mask10" mask-type="alpha" maskUnits="userSpaceOnUse" x="44" y="10" width="7" height="7">
<path d="M47.6917 12.4097C46.902 12.8771 46.18 13.4246 44.846 13.9364C44.846 13.9364 44.7505 14.701 44.5812 15.1573C44.4337 15.5556 44.0757 16.1229 44.0757 16.1229C44.6961 15.9243 45.3951 15.6148 46.3795 15.1745C48.2746 14.3236 50.6377 12.5429 50.6377 12.5429L50.0705 10.6894C50.0705 10.6894 48.7801 11.7622 47.6917 12.4097Z" fill="white"/>
</mask>
<g mask="url(#mask10)">
<path fill-rule="evenodd" clip-rule="evenodd" d="M44.0757 16.1229H50.6377V10.6894H44.0757V16.1229Z" fill="#074A81"/>
</g>
<path fill-rule="evenodd" clip-rule="evenodd" d="M47.1345 9.43952C46.5383 10.0093 45.7075 10.6912 44.8839 11.2042L44.9021 13.387C45.0992 13.2957 45.2927 13.1946 45.4813 13.0812C47.7441 11.7259 49.6452 9.32729 49.6452 9.32729L49.1384 7.33197C49.1384 7.33197 48.0597 8.55038 47.1345 9.43952Z" fill="#074A81"/>
<mask id="mask11" mask-type="alpha" maskUnits="userSpaceOnUse" x="44" y="7" width="6" height="7">
<path d="M47.1342 9.43892C46.5392 10.0087 45.7071 10.6906 44.8835 11.2036L44.9017 13.3876C45.0988 13.2964 45.2935 13.194 45.481 13.0806C47.7437 11.7253 49.6448 9.32669 49.6448 9.32669L49.1381 7.33137C49.1381 7.33137 48.0593 8.54978 47.1342 9.43892Z" fill="white"/>
</mask>
<g mask="url(#mask11)">
<path fill-rule="evenodd" clip-rule="evenodd" d="M44.8835 13.3864H49.6448V7.33137H44.8835V13.3864Z" fill="#074A81"/>
</g>
<path fill-rule="evenodd" clip-rule="evenodd" d="M46.6716 5.73146C46.0766 6.73035 45.5699 7.37408 45.0849 7.97342C44.9604 8.12634 44.86 8.26569 44.7439 8.38778L44.8128 10.6741C45.6449 10.1328 46.4104 9.31145 47.1554 8.21759C48.2039 6.68472 48.6598 5.5847 48.6598 5.5847L47.8326 3.48086C47.8326 3.48086 47.2666 4.73133 46.6716 5.73146Z" fill="#074A81"/>
<mask id="mask12" mask-type="alpha" maskUnits="userSpaceOnUse" x="44" y="3" width="5" height="8">
<path d="M46.6721 5.73069C46.0771 6.72958 45.5704 7.37331 45.0854 7.97389C44.9608 8.12557 44.8605 8.26492 44.7432 8.38824L44.8133 10.6734C45.6453 10.1332 46.4109 9.31191 47.1558 8.21683C48.2031 6.68519 48.6591 5.58394 48.6591 5.58394L47.8331 3.48009C47.8331 3.48009 47.2659 4.73179 46.6721 5.73069Z" fill="white"/>
</mask>
<g mask="url(#mask12)">
<path fill-rule="evenodd" clip-rule="evenodd" d="M44.7432 10.6734H48.6591V3.48009H44.7432V10.6734Z" fill="#074A81"/>
</g>
<path fill-rule="evenodd" clip-rule="evenodd" d="M46.6025 15.9172C45.508 16.2909 44.5829 16.6128 43.6698 16.8335L43.0627 17.6006L42.2899 18.5674C43.463 18.2825 44.1197 18.0938 45.6737 17.8213C47.339 17.5315 47.6268 17.4982 49.3248 16.8853C51.0215 16.2724 52.0241 15.0503 52.0241 15.0503L50.9864 13.8417C50.9864 13.8417 48.5883 15.239 46.6025 15.9172Z" fill="#074A81"/>
<mask id="mask13" mask-type="alpha" maskUnits="userSpaceOnUse" x="42" y="13" width="11" height="6">
<path d="M46.602 15.9182C45.5075 16.2906 44.5836 16.6137 43.6693 16.8345L43.0622 17.6015L42.2894 18.5684C43.4637 18.2823 44.1192 18.0936 45.6732 17.821C47.3397 17.5312 47.6276 17.4992 49.3243 16.885C51.0222 16.2734 52.0236 15.0513 52.0236 15.0513L50.9859 13.8415C50.9859 13.8415 48.589 15.2399 46.602 15.9182Z" fill="white"/>
</mask>
<g mask="url(#mask13)">
<path fill-rule="evenodd" clip-rule="evenodd" d="M42.2894 18.5681H52.0236V13.8425H42.2894V18.5681Z" fill="#074A81"/>
</g>
<path fill-rule="evenodd" clip-rule="evenodd" d="M53.8734 22.4929C52.9603 22.8752 51.8005 23.2735 49.3479 23.4487C46.8954 23.6275 44.4984 22.9899 43.1983 22.9171C42.018 22.8543 39.9016 22.9665 38.4939 23.1983L37.5289 24.5659L37.2991 24.8903C38.1553 24.8039 39.0817 24.6991 40.1592 24.5672H40.1725C40.2221 24.561 40.2741 24.5548 40.3249 24.5487C41.0771 24.4537 41.9769 24.4845 42.8573 24.5659H42.8646C43.9941 24.6683 45.0886 24.8533 45.7997 24.9729C47.0635 25.1875 47.6972 25.2208 48.9972 25.1875C50.2961 25.1505 51.8163 24.8841 53.0462 24.5659L52.9905 24.5857C54.2059 24.2391 55.7709 23.1317 55.7709 23.1317L55.5943 21.367C55.5943 21.367 54.7864 22.1119 53.8734 22.4929Z" fill="#074A81"/>
<mask id="mask14" mask-type="alpha" maskUnits="userSpaceOnUse" x="37" y="21" width="19" height="5">
<path d="M53.8728 22.4925C52.9609 22.8748 51.8011 23.2731 49.3473 23.4495C46.8948 23.627 44.4978 22.9895 43.1989 22.9167C42.0174 22.8551 39.9022 22.966 38.4945 23.1979L37.5295 24.5655L37.2997 24.8911C38.1547 24.8048 39.0811 24.6987 40.1598 24.5667H40.1731C40.2227 24.5606 40.2747 24.5544 40.3255 24.5482C41.0777 24.4533 41.9775 24.4854 42.8567 24.5655H42.8664C43.9947 24.6679 45.088 24.8528 45.7991 24.9725C47.0641 25.187 47.6978 25.2203 48.9966 25.187C50.2967 25.1513 51.8157 24.8849 53.0468 24.5655L52.9899 24.5852C54.2066 24.2399 55.7715 23.1313 55.7715 23.1313L55.5949 21.3666C55.5949 21.3666 54.7871 22.1114 53.8728 22.4925Z" fill="white"/>
</mask>
<g mask="url(#mask14)">
<path fill-rule="evenodd" clip-rule="evenodd" d="M37.2997 25.2203H55.7715V21.3666H37.2997V25.2203Z" fill="#074A81"/>
</g>
<path fill-rule="evenodd" clip-rule="evenodd" d="M44.5652 5.79759L44.7248 7.86197C45.9136 5.08727 45.7806 3.2128 45.7806 3.2128L44.3281 1.97713C44.3499 1.99932 44.5652 5.79759 44.5652 5.79759Z" fill="#074A81"/>
<mask id="mask15" mask-type="alpha" maskUnits="userSpaceOnUse" x="44" y="1" width="2" height="7">
<path d="M44.5642 5.7973L44.725 7.86168C45.9138 5.08697 45.782 3.2125 45.782 3.2125L44.3284 1.97807C44.3501 1.99903 44.5642 5.7973 44.5642 5.7973Z" fill="white"/>
</mask>
<g mask="url(#mask15)">
<path fill-rule="evenodd" clip-rule="evenodd" d="M44.3284 7.86168H45.9138V1.97807H44.3284V7.86168Z" fill="#074A81"/>
</g>
<path fill-rule="evenodd" clip-rule="evenodd" d="M51.7169 16.8544C50.7881 17.434 49.1652 18.1443 47.5942 18.402C46.0257 18.661 44.7776 18.661 43.7533 18.7893C43.1232 18.8694 42.5209 18.9915 41.9187 19.1087L41.2427 19.8843L40.5763 20.6366C41.0467 20.5663 41.5063 20.4627 42.0892 20.4048C43.3687 20.274 44.3289 20.3406 46.0257 20.3406C47.7224 20.3406 48.812 20.1766 50.533 19.4688C52.2527 18.7584 53.7317 17.1713 53.7317 17.1713L52.8247 16.0429C52.8247 16.0429 52.6457 16.2723 51.7169 16.8544Z" fill="#074A81"/>
<mask id="mask16" mask-type="alpha" maskUnits="userSpaceOnUse" x="40" y="16" width="14" height="5">
<path d="M51.7162 16.8542C50.7886 17.4338 49.1645 18.1441 47.5947 18.4019C46.025 18.6608 44.7769 18.6608 43.7526 18.7903C43.1237 18.8693 42.5202 18.9926 41.918 19.1085L41.2431 19.8842L40.5768 20.6364C41.0472 20.5661 41.5056 20.4626 42.0885 20.4046C43.368 20.2751 44.3282 20.3405 46.025 20.3405C47.7217 20.3405 48.8113 20.1777 50.5322 19.4686C52.252 18.7583 53.731 17.1711 53.731 17.1711L52.824 16.0428C52.824 16.0428 52.645 16.2734 51.7162 16.8542Z" fill="white"/>
</mask>
<g mask="url(#mask16)">
<path fill-rule="evenodd" clip-rule="evenodd" d="M40.5758 20.6377H53.73V16.0428H40.5758V20.6377Z" fill="#074A81"/>
</g>
<path fill-rule="evenodd" clip-rule="evenodd" d="M52.1525 19.9518C50.7436 20.6288 48.3189 21.0814 46.783 21.0493C45.2459 21.016 43.6302 20.9112 42.2854 20.9766C41.6093 21.0086 40.839 21.1036 40.1206 21.1961L38.8713 22.6599C39.216 22.5982 39.661 22.4749 40.2186 22.4231C41.9165 22.2616 43.4645 22.5255 45.4503 22.687C47.4336 22.8498 47.979 22.9127 49.4847 22.687C50.9891 22.4601 52.0691 21.8892 53.2204 21.1468C54.3741 20.4044 55.1409 19.5892 55.1409 19.5892L54.4697 18.2105C54.4697 18.2105 53.5602 19.2723 52.1525 19.9518Z" fill="#074A81"/>
<mask id="mask17" mask-type="alpha" maskUnits="userSpaceOnUse" x="38" y="18" width="18" height="5">
<path d="M52.1518 19.952C50.7441 20.629 48.3193 21.0816 46.7835 21.0483C45.2452 21.0162 43.6294 20.9114 42.2858 20.9768C41.6098 21.0088 40.8394 21.1025 40.1211 21.1963L38.8706 22.6601C39.2165 22.5997 39.6615 22.4751 40.219 22.4221C41.917 22.2618 43.4638 22.5257 45.4495 22.6872C47.4341 22.8488 47.9795 22.9129 49.484 22.6872C50.9884 22.4603 52.0684 21.8893 53.2209 21.1457C54.3746 20.4045 55.1414 19.5894 55.1414 19.5894L54.469 18.2107C54.469 18.2107 53.5595 19.2725 52.1518 19.952Z" fill="white"/>
</mask>
<g mask="url(#mask17)">
<path fill-rule="evenodd" clip-rule="evenodd" d="M38.8716 22.9129H55.1411V18.2107H38.8716V22.9129Z" fill="#074A81"/>
</g>
<path fill-rule="evenodd" clip-rule="evenodd" d="M28.4989 9.88987C28.4989 9.88987 29.2983 10.8912 30.2912 12.376C31.2841 13.8596 31.7001 14.692 32.341 15.4972C32.9808 16.3038 34.2216 17.3064 35.2774 17.8872C36.3344 18.4668 37.8388 18.822 38.8305 18.9194C39.5767 18.9921 40.2491 18.9724 41.0932 18.8244L42.6666 17.0301C42.2566 17.0942 41.843 17.1325 41.4161 17.1448C37.551 17.241 36.494 16.4345 35.6619 15.9807C34.8287 15.5293 33.6121 14.2714 32.9723 13.4637C32.3326 12.6572 31.4123 11.3426 31.0289 10.6976C30.6431 10.0514 29.2354 8.40632 29.2354 8.40632L28.4989 9.88987Z" fill="#074A81"/>
<mask id="mask18" mask-type="alpha" maskUnits="userSpaceOnUse" x="28" y="8" width="15" height="11">
<path d="M28.4978 9.89033C28.4978 9.89033 29.2984 10.8917 30.2913 12.3765C31.2842 13.8588 31.7002 14.6912 32.3412 15.4965C32.9809 16.3042 34.2217 17.3056 35.2775 17.8877C36.3345 18.4673 37.8377 18.8224 38.8306 18.9198C39.5768 18.9926 40.2492 18.9729 41.0921 18.8249L42.6667 17.0293C42.2567 17.0947 41.8419 17.1329 41.4162 17.144C37.5511 17.2402 36.4941 16.4337 35.6621 15.9811C34.8288 15.5298 33.6122 14.2719 32.9724 13.4642C32.3315 12.6576 31.4124 11.343 31.0278 10.6981C30.6432 10.0506 29.2355 8.40555 29.2355 8.40555L28.4978 9.89033Z" fill="white"/>
</mask>
<g mask="url(#mask18)">
<path fill-rule="evenodd" clip-rule="evenodd" d="M28.4988 18.9924H42.6664V8.40655H28.4988V18.9924Z" fill="#074A81"/>
</g>
<path fill-rule="evenodd" clip-rule="evenodd" d="M27.4742 13.4642C27.4742 13.4642 28.6582 14.6912 29.6837 15.9171C30.7081 17.1441 31.8292 18.5635 32.972 19.338C34.1148 20.1149 35.8249 20.9202 37.6159 20.8893C37.8034 20.8856 37.9763 20.8856 38.1384 20.8856C38.4903 20.8869 38.7975 20.8869 39.1119 20.8523L40.6297 19.3195C40.0516 19.4046 39.5255 19.4502 38.991 19.4021C36.692 19.1961 35.0219 18.4353 33.7085 17.498C32.3963 16.5633 30.4202 14.3681 29.7478 13.5616C29.0754 12.7551 27.9229 11.6008 27.9229 11.6008L27.4742 13.4642Z" fill="#074A81"/>
<mask id="mask19" mask-type="alpha" maskUnits="userSpaceOnUse" x="27" y="11" width="14" height="10">
<path d="M27.4747 13.4641C27.4747 13.4641 28.6587 14.6912 29.6842 15.9182C30.7074 17.144 31.8284 18.5634 32.9725 19.3366C34.1141 20.1136 35.8242 20.9201 37.6152 20.8892C37.8027 20.8855 37.9756 20.8855 38.1389 20.8855C38.4908 20.8868 38.798 20.8868 39.1112 20.8523L40.6302 19.3194C40.0509 19.4045 39.5248 19.4501 38.9915 19.402C36.6925 19.1961 35.0211 18.4364 33.709 17.4992C32.3956 16.5619 30.4207 14.3681 29.7483 13.5616C29.0759 12.755 27.9222 11.6008 27.9222 11.6008L27.4747 13.4641Z" fill="white"/>
</mask>
<g mask="url(#mask19)">
<path fill-rule="evenodd" clip-rule="evenodd" d="M27.4738 20.9201H40.6292V11.6008H27.4738V20.9201Z" fill="#074A81"/>
</g>
<path fill-rule="evenodd" clip-rule="evenodd" d="M41.8289 4.93525C41.8289 5.51239 42.292 5.97977 42.8641 5.97977C43.4349 5.97977 43.8993 5.51239 43.8993 4.93525C43.8993 4.35934 43.4349 3.89196 42.8641 3.89196C42.292 3.89196 41.8289 4.35934 41.8289 4.93525Z" fill="#074A81"/>
<mask id="mask20" mask-type="alpha" maskUnits="userSpaceOnUse" x="41" y="3" width="3" height="3">
<path d="M41.8287 4.93525C41.8287 5.51239 42.2919 5.97977 42.8639 5.97977C43.4348 5.97977 43.8992 5.51239 43.8992 4.93525C43.8992 4.35934 43.4348 3.89196 42.8639 3.89196C42.2919 3.89196 41.8287 4.35934 41.8287 4.93525Z" fill="white"/>
</mask>
<g mask="url(#mask20)">
<path fill-rule="evenodd" clip-rule="evenodd" d="M41.8287 5.97854H43.8992V3.89196H41.8287V5.97854Z" fill="#074A81"/>
</g>
<path fill-rule="evenodd" clip-rule="evenodd" d="M27.2722 17.6275C27.2722 17.6275 28.8831 19.3071 29.9086 20.1765C30.9317 21.0496 31.8605 21.7599 33.1328 22.3642C34.4038 22.9685 35.9687 23.0141 37.2192 22.9549L38.6366 21.3998L38.3512 21.4381C37.5506 21.5343 36.2566 21.4664 34.5272 21.0126C32.799 20.5613 30.9958 18.9199 29.9703 18.1134C28.9484 17.3056 27.2722 15.2388 27.2722 15.2388V17.6275Z" fill="#074A81"/>
<mask id="mask21" mask-type="alpha" maskUnits="userSpaceOnUse" x="27" y="15" width="12" height="8">
<path d="M27.2716 17.6275C27.2716 17.6275 28.8825 19.3071 29.908 20.1777C30.9323 21.0496 31.8611 21.7587 33.1322 22.3642C34.4044 22.9685 35.9681 23.0141 37.2186 22.9549L38.6372 21.3998L38.3506 21.4381C37.5512 21.5343 36.256 21.4677 34.5278 21.0126C32.7984 20.5613 30.9952 18.9199 29.9697 18.1134C28.9478 17.3056 27.2716 15.2388 27.2716 15.2388V17.6275Z" fill="white"/>
</mask>
<g mask="url(#mask21)">
<path fill-rule="evenodd" clip-rule="evenodd" d="M27.2726 23.0153H38.637V15.2388H27.2726V23.0153Z" fill="#074A81"/>
</g>
<path fill-rule="evenodd" clip-rule="evenodd" d="M30.0693 6.92965C30.0693 6.92965 30.3233 7.24288 31.1239 8.53405C31.9245 9.82644 32.5957 11.1645 33.5801 12.5062C34.284 13.4644 35.5018 14.6914 36.9421 15.5621C38.3825 16.4339 39.8785 16.5634 41.3829 16.5314C41.9912 16.5178 42.5173 16.4833 43.076 16.3711C43.076 16.3711 43.4231 15.8099 43.596 15.4252C43.7992 14.9738 44.0036 14.2203 44.0036 14.2203C43.7025 14.3165 43.3747 14.4078 43.0168 14.4966C41.4676 14.8826 39.0234 14.6261 37.23 13.399C35.4377 12.1732 34.3807 10.6009 33.2608 8.66477C32.1398 6.7274 31.1239 5.50037 31.1239 5.50037L30.0693 6.92965Z" fill="#074A81"/>
<mask id="mask22" mask-type="alpha" maskUnits="userSpaceOnUse" x="30" y="5" width="15" height="12">
<path d="M30.0688 6.92931C30.0688 6.92931 30.324 7.24254 31.1234 8.53371C31.924 9.8261 32.5964 11.1641 33.5808 12.5071C34.2835 13.4641 35.5025 14.6911 36.9416 15.5617C38.382 16.4336 39.8792 16.5619 41.3836 16.531C41.9919 16.5175 42.5168 16.4842 43.0767 16.3719C43.0767 16.3719 43.4238 15.8096 43.5956 15.4248C43.7987 14.9735 44.0043 14.22 44.0043 14.22C43.7032 14.3174 43.3755 14.4075 43.0163 14.4962C41.4683 14.8835 39.0242 14.627 37.2307 13.3987C35.4384 12.1729 34.3802 10.6006 33.2604 8.66566C32.1405 6.72706 31.1234 5.50002 31.1234 5.50002L30.0688 6.92931Z" fill="white"/>
</mask>
<g mask="url(#mask22)">
<path fill-rule="evenodd" clip-rule="evenodd" d="M30.0688 16.5631H44.0031V5.50002H30.0688V16.5631Z" fill="#074A81"/>
</g>
<path fill-rule="evenodd" clip-rule="evenodd" d="M31.9774 4.50895C31.9774 4.50895 33.1457 6.28599 34.0478 7.81886C34.9524 9.34927 35.458 10.6158 36.6262 11.7922C37.7932 12.9687 39.3352 13.9035 40.8771 14.0132C41.9389 14.0909 43.0721 14.0194 44.1242 13.6914L44.3274 11.5185C44.0601 11.6615 43.8026 11.7787 43.5655 11.8601C42.4638 12.2374 41.5822 12.1042 40.4804 11.9267C39.3787 11.7479 37.9033 10.7033 37.0894 9.63784C36.6661 9.08536 36.1412 8.26158 35.6575 7.26146C35.1725 6.26256 34.8194 5.59786 34.3792 4.88631C33.939 4.17598 33.2751 3.23998 33.2751 3.23998L31.9774 4.50895Z" fill="#074A81"/>
<mask id="mask23" mask-type="alpha" maskUnits="userSpaceOnUse" x="31" y="3" width="14" height="12">
<path d="M31.9772 4.50852C31.9772 4.50852 33.1466 6.2868 34.0488 7.81843C34.9534 9.34884 35.4577 10.6153 36.626 11.7918C37.7942 12.9695 39.3349 13.9043 40.8769 14.0128C41.9399 14.0905 43.0731 14.0202 44.124 13.6922L44.3272 11.518C44.0611 11.6611 43.8023 11.777 43.5653 11.8596C42.4635 12.237 41.5819 12.1038 40.4814 11.9262C39.3785 11.7474 37.903 10.7041 37.0879 9.63741C36.6659 9.08493 36.141 8.26115 35.6573 7.26103C35.1711 6.26213 34.8192 5.59743 34.379 4.88588C33.9388 4.17555 33.276 3.23955 33.276 3.23955L31.9772 4.50852Z" fill="white"/>
</mask>
<g mask="url(#mask23)">
<path fill-rule="evenodd" clip-rule="evenodd" d="M31.9772 14.0905H44.3272V3.23955H31.9772V14.0905Z" fill="#074A81"/>
</g>
<path fill-rule="evenodd" clip-rule="evenodd" d="M27.7985 20.7406C27.9339 21.2993 28.177 22.1675 28.177 22.1675C28.177 22.1675 30.1446 23.4463 31.1968 23.9087C31.695 24.1295 32.2223 24.3638 32.7822 24.566C33.5998 24.8571 34.4826 25.0791 35.4344 25.0791C35.4344 25.0791 35.565 24.8595 35.7899 24.5685H35.7948C35.8758 24.4674 35.9689 24.3576 36.0729 24.2454C36.3934 23.9013 36.8203 23.3575 36.8203 23.3575C35.7609 23.4155 34.7003 23.3698 33.8961 23.1676C32.7701 22.8827 30.5836 21.6606 29.6693 21.0933C28.7563 20.5261 27.4598 19.1856 27.4598 19.1856C27.4598 19.1856 27.6521 20.1376 27.7985 20.7406Z" fill="#074A81"/>
<mask id="mask24" mask-type="alpha" maskUnits="userSpaceOnUse" x="27" y="19" width="10" height="7">
<path d="M27.7988 20.7412C27.9343 21.2999 28.1773 22.1668 28.1773 22.1668C28.1773 22.1668 30.145 23.4469 31.1959 23.9093C31.6942 24.1301 32.2215 24.3644 32.7814 24.5654C33.6001 24.8564 34.483 25.0784 35.4335 25.0784C35.4335 25.0784 35.5641 24.8589 35.7903 24.5691H35.7951C35.8761 24.468 35.9693 24.357 36.0733 24.2448C36.3925 23.9007 36.8207 23.3569 36.8207 23.3569C35.7613 23.4148 34.6994 23.3692 33.8952 23.167C32.7705 22.8833 30.584 21.6612 29.6685 21.0927C28.7566 20.5254 27.459 19.1862 27.459 19.1862C27.459 19.1862 27.6525 20.137 27.7988 20.7412Z" fill="white"/>
</mask>
<g mask="url(#mask24)">
<path fill-rule="evenodd" clip-rule="evenodd" d="M27.459 25.0784H36.8194V19.1862H27.459V25.0784Z" fill="#074A81"/>
</g>
<path fill-rule="evenodd" clip-rule="evenodd" d="M34.2697 2.42195C34.2697 2.42195 34.9929 3.17667 35.9216 5.1535C36.7138 6.84052 37.1745 8.11442 37.9243 9.19471C38.806 10.4612 39.996 11.5033 42.3978 11.4391C43.0823 11.4182 43.7293 11.2591 44.3231 10.9656L44.1888 8.87038C43.8611 9.10468 43.5201 9.24157 43.1028 9.3057C42.5308 9.39572 41.9793 9.39572 40.9429 8.99493C39.9077 8.59537 39.0926 7.72843 38.5641 6.61731C38.0368 5.50866 37.5954 4.61952 36.9569 3.37522C36.3183 2.13215 35.6568 1.42059 35.6568 1.42059L34.2697 2.42195Z" fill="#074A81"/>
<mask id="mask25" mask-type="alpha" maskUnits="userSpaceOnUse" x="34" y="1" width="11" height="11">
<path d="M34.269 2.42192C34.269 2.42192 34.9935 3.17664 35.921 5.15223C36.7132 6.84049 37.1739 8.11439 37.9249 9.19467C38.8066 10.4599 39.9966 11.5032 42.3972 11.4379C43.0829 11.4181 43.7299 11.2591 44.3225 10.9656L44.1882 8.87034C43.8617 9.10465 43.5207 9.24153 43.1034 9.30566C42.5302 9.39568 41.9799 9.39568 40.9435 8.99489C39.9071 8.59534 39.092 7.72716 38.5647 6.61728C38.0362 5.50863 37.5948 4.61949 36.9562 3.37519C36.3177 2.13212 35.6574 1.42179 35.6574 1.42179L34.269 2.42192Z" fill="white"/>
</mask>
<g mask="url(#mask25)">
<path fill-rule="evenodd" clip-rule="evenodd" d="M34.27 11.5035H44.3234V1.42079H34.27V11.5035Z" fill="#074A81"/>
</g>
<path fill-rule="evenodd" clip-rule="evenodd" d="M24.0603 43.6404C22.5535 43.6564 21.5376 43.9092 20.4068 44.9155C19.0923 46.0871 18.5868 47.3474 18.7029 49.1134C18.7367 49.6214 18.8177 50.0531 18.952 50.4428L18.958 50.4489H18.952C19.1914 51.1605 19.6002 51.7487 20.2013 52.4331C21.4094 53.8069 23.0541 54.3002 23.8898 54.5728C24.5102 54.7738 24.9226 54.8798 25.3495 55.3916C25.7716 55.8984 26.0945 56.3325 26.242 56.8653C26.3122 57.1206 26.3448 57.398 26.323 57.7199C26.271 58.5424 26.0316 59.0813 25.4184 59.624C24.9129 60.0753 24.4945 60.264 23.8209 60.2985C23.0541 60.3367 22.5716 60.1061 21.9705 59.624C21.2667 59.0653 20.8253 58.3624 20.8253 57.6163H18.0619C18.0619 59.2639 18.6158 60.5193 19.8904 61.7031C21.1325 62.8623 22.2693 63.2878 23.9599 63.2224C25.8163 63.1497 27.0753 62.5281 28.2024 61.0421C29.136 59.8114 29.4117 58.7755 29.3198 57.2315C29.3114 57.1058 29.3017 56.9837 29.2896 56.8653C29.1348 55.3632 28.6124 54.3335 27.4393 53.2791C26.8249 52.7254 26.3787 52.5256 25.6277 52.1828C25.0145 51.9041 24.6904 51.9016 23.9926 51.6205C23.2839 51.3307 22.6502 50.9718 22.2535 50.4428H22.2511C22.2523 50.444 22.2535 50.4465 22.2535 50.4465H22.2511V50.4428C22.0008 50.111 21.8472 49.7115 21.8303 49.2231C21.8012 48.4376 22.0407 47.9307 22.5668 47.3486C23.0275 46.8356 23.4931 46.5742 24.0978 46.4681C24.6904 46.3633 24.896 46.3621 25.5938 46.4681V43.8217C25.1016 43.6885 24.711 43.6392 24.1643 43.6392C24.1305 43.6392 24.0966 43.6404 24.0603 43.6404Z" fill="#074A81"/>
<mask id="mask26" mask-type="alpha" maskUnits="userSpaceOnUse" x="18" y="43" width="12" height="21">
<path d="M24.0595 43.6406C22.5538 43.6554 21.5379 43.9094 20.4072 44.9157C19.0926 46.0873 18.5871 47.3476 18.7032 49.1135C18.7371 49.6216 18.8169 50.0532 18.9523 50.4429L18.9572 50.4479H18.9523C19.1918 51.1594 19.6006 51.7489 20.2016 52.4333C21.4098 53.8071 23.0557 54.2992 23.8902 54.5729C24.5106 54.7739 24.923 54.88 25.3499 55.3918C25.7719 55.8986 26.0936 56.3327 26.2424 56.8642C26.3125 57.1195 26.344 57.3982 26.3222 57.7201C26.2702 58.5426 26.0319 59.0803 25.4188 59.6241C24.9133 60.0755 24.4948 60.2642 23.82 60.2987C23.0557 60.3369 22.572 60.1051 21.9709 59.6241C21.2671 59.0655 20.8244 58.3613 20.8244 57.6152H18.061C18.061 59.264 18.6161 60.5182 19.8896 61.7033C21.1328 62.8625 22.2696 63.2867 23.9603 63.2214C25.8155 63.1499 27.0744 62.5283 28.2027 61.0423C29.1364 59.8116 29.4121 58.7757 29.319 57.2305C29.3117 57.1047 29.3021 56.9838 29.29 56.8642C29.1352 55.3622 28.6115 54.3325 27.4396 53.2793C26.8241 52.7256 26.3778 52.5258 25.628 52.1817C25.0149 51.9043 24.6895 51.9018 23.993 51.6206C23.2843 51.3308 22.6506 50.972 22.2539 50.4429H22.2515C22.0011 50.1112 21.8488 49.7116 21.8294 49.2233C21.8016 48.4377 22.041 47.9297 22.5659 47.3488C23.0279 46.8358 23.4923 46.5731 24.0982 46.4683C24.6895 46.3623 24.8963 46.3623 25.5929 46.4683V43.8219C25.1019 43.6887 24.7101 43.6393 24.1659 43.6393C24.1308 43.6393 24.097 43.6406 24.0595 43.6406Z" fill="white"/>
</mask>
<g mask="url(#mask26)">
<path fill-rule="evenodd" clip-rule="evenodd" d="M18.061 63.288H29.4121V43.6393H18.061V63.288Z" fill="#074A81"/>
</g>
<path fill-rule="evenodd" clip-rule="evenodd" d="M14.5545 43.703L9.86339 50.4425L5.39359 56.865L1.14148 62.973L4.27252 62.9718L8.27913 57.267L14.8955 57.2485L14.8484 62.9718H17.6541L17.6577 56.865L17.6614 50.4425L17.6638 43.666L14.5545 43.703ZM10.3254 54.2111L13.1299 50.4425L14.6694 48.3707V50.4425V54.2173L10.3254 54.2111Z" fill="#074A81"/>
<mask id="mask27" mask-type="alpha" maskUnits="userSpaceOnUse" x="1" y="43" width="17" height="20">
<path d="M14.5551 43.7035L9.864 50.4429L5.393 56.8642L1.14209 62.9735L4.27192 62.9723L8.27853 57.2675L14.8949 57.249L14.8478 62.9723H17.6535L17.6571 56.8642L17.6608 50.4429L17.6644 43.6652L14.5551 43.7035ZM10.326 54.2116L13.1305 50.4429L14.67 48.3711V50.4429V54.2178L10.326 54.2116Z" fill="white"/>
</mask>
<g mask="url(#mask27)">
<path fill-rule="evenodd" clip-rule="evenodd" d="M1.14209 62.9723H17.6644V43.6652H1.14209V62.9723Z" fill="#074A81"/>
</g>
<path fill-rule="evenodd" clip-rule="evenodd" d="M38.5625 43.7536V50.4425V56.865V62.9447H48.0451V60.4734H41.3634V56.865V54.5453H48.0451V51.6227H41.3634V50.4425V46.3976H48.0451V43.7536H38.5625Z" fill="#074A81"/>
<mask id="mask28" mask-type="alpha" maskUnits="userSpaceOnUse" x="38" y="43" width="11" height="20">
<path d="M38.5634 43.7528V50.4429V56.8642V62.9439H48.046V60.4726H41.363V56.8642V54.5446H48.046V51.6219H41.363V50.4429V46.3968H48.046V43.7528H38.5634Z" fill="white"/>
</mask>
<g mask="url(#mask28)">
<path fill-rule="evenodd" clip-rule="evenodd" d="M38.5624 62.9449H48.045V43.7538H38.5624V62.9449Z" fill="#074A81"/>
</g>
<path fill-rule="evenodd" clip-rule="evenodd" d="M53.6408 43.6787H48.9993L49.0041 50.4416L49.0089 56.8642L49.0126 62.9315H51.8062V56.8642V54.7652H52.215L53.3675 56.8642L56.6956 62.9315L59.7856 62.9438L56.6376 56.8642L55.2142 54.1227C56.4163 53.8095 57.4164 53.6517 58.4528 52.7465C59.1736 52.1176 59.563 51.6662 59.9138 50.7721C59.9573 50.6599 59.9972 50.5514 60.0311 50.4429C60.3249 49.5352 60.2874 48.7854 60.0879 47.8408C59.7807 46.3906 59.0212 45.3806 57.7853 44.542C56.5481 43.6997 55.6169 43.6787 53.9153 43.6787H53.6408ZM51.863 50.4416L51.8473 46.2672H53.4945C54.4789 46.2672 55.19 46.1057 56.0148 46.668C56.79 47.1946 57.2278 47.7643 57.3088 48.7028C57.3705 49.4057 57.235 49.9163 56.8541 50.4392H56.8517C56.7936 50.5156 56.7307 50.5933 56.6642 50.6722C56.0232 51.4023 55.4609 51.5342 54.3471 51.5342H51.8691L51.863 50.4416Z" fill="#074A81"/>
<mask id="mask29" mask-type="alpha" maskUnits="userSpaceOnUse" x="48" y="43" width="13" height="20">
<path d="M53.6418 43.6787H48.999L49.0051 50.4429L49.0099 56.8642L49.0135 62.9315H51.806V56.8642V54.7652H52.2159L53.3672 56.8642L56.6954 62.9315L59.7853 62.9438L56.6374 56.8642L55.2151 54.1227C56.4172 53.8095 57.4162 53.6517 58.4526 52.7453C59.1734 52.1176 59.5628 51.6662 59.9123 50.7721C59.957 50.6599 59.9982 50.5514 60.0308 50.4441C60.3247 49.5352 60.2872 48.7854 60.0877 47.8408C59.7805 46.3906 59.021 45.3806 57.7862 44.542C56.5479 43.6985 55.6179 43.6787 53.9139 43.6787H53.6418ZM51.864 50.4429L51.8459 46.2672H53.4942C54.4786 46.2672 55.1897 46.1057 56.0145 46.668C56.7885 47.1946 57.2275 47.7631 57.3085 48.704C57.3714 49.4045 57.2348 49.9151 56.8538 50.4392H56.8514C56.7934 50.5156 56.7317 50.5933 56.664 50.6722C56.0242 51.4011 55.4606 51.5342 54.348 51.5342H51.8688L51.864 50.4429Z" fill="white"/>
</mask>
<g mask="url(#mask29)">
<path fill-rule="evenodd" clip-rule="evenodd" d="M48.999 62.9438H60.3247V43.6787H48.999V62.9438Z" fill="#074A81"/>
</g>
<path fill-rule="evenodd" clip-rule="evenodd" d="M65.4207 50.4423L65.4256 56.8648L65.428 62.9716H68.2325L68.1866 57.2496L74.803 57.2668L78.8096 62.9716L81.9382 62.9729L77.6897 56.8648L73.2199 50.4423L68.5276 43.7028L65.4171 43.6658L65.4207 50.4423ZM68.4115 50.4423V48.3705L69.9522 50.4423L72.7555 54.2122L68.4115 54.2184V50.4423Z" fill="#074A81"/>
<mask id="mask30" mask-type="alpha" maskUnits="userSpaceOnUse" x="65" y="43" width="17" height="20">
<path d="M65.421 50.4429L65.4258 56.8642L65.4295 62.9723H68.2328L68.1856 57.249L74.8032 57.2675L78.8098 62.9723L81.9384 62.9735L77.69 56.8642L73.2202 50.4429L68.5278 43.7035L65.4174 43.6652L65.421 50.4429ZM68.4117 50.4429V48.3711L69.9525 50.4429L72.7558 54.2116L68.4117 54.2178V50.4429Z" fill="white"/>
</mask>
<g mask="url(#mask30)">
<path fill-rule="evenodd" clip-rule="evenodd" d="M65.4174 62.9723H81.9397V43.6652H65.4174V62.9723Z" fill="#074A81"/>
</g>
<path fill-rule="evenodd" clip-rule="evenodd" d="M61.446 43.6837V50.4416V56.8642V62.897H64.1405V56.8642V50.4416V43.6787L61.446 43.6837Z" fill="#074A81"/>
<mask id="mask31" mask-type="alpha" maskUnits="userSpaceOnUse" x="61" y="43" width="4" height="20">
<path d="M61.4458 43.6837V50.4429V56.8642V62.897H64.1403V56.8642V50.4429V43.6787L61.4458 43.6837Z" fill="white"/>
</mask>
<g mask="url(#mask31)">
<path fill-rule="evenodd" clip-rule="evenodd" d="M61.4458 62.897H64.1403V43.6787H61.4458V62.897Z" fill="#074A81"/>
</g>
<path fill-rule="evenodd" clip-rule="evenodd" d="M26.3599 43.6464V46.3965H30.4499L30.4487 50.4426L30.4463 56.8651L30.4427 62.9436H33.7043L33.7067 56.8651L33.7092 50.4426L33.7116 46.3965H37.6021V43.6464H26.3599Z" fill="#074A81"/>
<mask id="mask32" mask-type="alpha" maskUnits="userSpaceOnUse" x="26" y="43" width="12" height="20">
<path d="M26.3597 43.6467V46.3967H30.4498L30.4486 50.4429L30.4462 56.8642L30.4438 62.9439H33.7042L33.7066 56.8642L33.7102 50.4429L33.7127 46.3967H37.602V43.6467H26.3597Z" fill="white"/>
</mask>
<g mask="url(#mask32)">
<path fill-rule="evenodd" clip-rule="evenodd" d="M26.3597 62.9439H37.602V43.6467H26.3597V62.9439Z" fill="#074A81"/>
</g>
<mask id="mask33" mask-type="alpha" maskUnits="userSpaceOnUse" x="0" y="65" width="83" height="2">
<path d="M0.612549 65.6008H82.4681V66.834H0.612549V65.6008Z" fill="white"/>
</mask>
<g mask="url(#mask33)">
<path d="M0.612549 66.2174H82.4682" stroke="#145487" stroke-width="0.656958"/>
</g>
<path fill-rule="evenodd" clip-rule="evenodd" d="M5.59747 69.3931H4.22847L1.59448 72.2505V69.3931H0.553223V76.5605H1.59448V73.5934L1.79886 73.3788L4.22847 76.5605H5.61803L2.52327 72.6377L5.59747 69.3931Z" fill="#074A81"/>
<path fill-rule="evenodd" clip-rule="evenodd" d="M8.19177 72.6809V70.4019H8.54853C9.06009 70.4019 9.96833 70.4981 9.96833 71.5093C9.96833 72.6488 8.80492 72.6809 8.51951 72.6809H8.19177ZM10.9685 71.4982C10.9685 71.1874 10.908 70.339 10.1618 69.8112C9.72403 69.5004 9.19312 69.3931 8.36592 69.3931H7.15051V76.5605H8.19177V73.6267H8.3756L10.3263 76.5605H11.5816L9.45797 73.4972C10.3662 73.2827 10.9685 72.5304 10.9685 71.4982Z" fill="#074A81"/>
<path fill-rule="evenodd" clip-rule="evenodd" d="M13.2151 76.5599H16.9726V75.5277H14.2563V73.1637H16.8915V72.1327H14.2563V70.4235H16.9726V69.3925H13.2151V76.5599Z" fill="#074A81"/>
<path fill-rule="evenodd" clip-rule="evenodd" d="M22.5287 74.4212L20.1596 68.8558L18.7301 76.5596H19.7919L20.5067 72.2298L22.467 76.8925L24.448 72.2397L25.1433 76.5596H26.2052L24.9184 68.8558L22.5287 74.4212Z" fill="#074A81"/>
<path fill-rule="evenodd" clip-rule="evenodd" d="M29.2881 69.3931H28.2468V76.5605H31.2896V75.5283H29.2881V69.3931Z" fill="#074A81"/>
<mask id="mask34" mask-type="alpha" maskUnits="userSpaceOnUse" x="0" y="0" width="83" height="77">
<path d="M0.553223 77H82.4681V0H0.553223V77Z" fill="white"/>
</mask>
<g mask="url(#mask34)">
<path fill-rule="evenodd" clip-rule="evenodd" d="M32.8829 76.5597H33.9242V69.3924H32.8829V76.5597Z" fill="#074A81"/>
<path fill-rule="evenodd" clip-rule="evenodd" d="M41.1131 74.3573L36.1716 68.909V76.5598H37.2117V71.553L42.1543 77V69.3936H41.1131V74.3573Z" fill="#074A81"/>
<path fill-rule="evenodd" clip-rule="evenodd" d="M48.9054 72.6375H48.4349V70.403H48.8945C50.0797 70.403 50.232 71.1121 50.232 71.5091C50.232 72.1751 49.8039 72.6375 48.9054 72.6375ZM50.3856 69.7802C49.8946 69.4349 49.3129 69.393 48.8945 69.393H47.3937V76.5603H48.4349V73.6475H48.9054C49.4061 73.6475 50.0277 73.5723 50.5695 73.0889C51.1306 72.5845 51.2334 71.9395 51.2334 71.5202C51.2334 70.8654 50.9577 70.1773 50.3856 69.7802Z" fill="#074A81"/>
<path fill-rule="evenodd" clip-rule="evenodd" d="M54.1226 73.7985L55.1748 71.3703L56.1858 73.7985H54.1226ZM51.8248 76.5596H52.9483L53.6945 74.8294H56.6042L57.319 76.5596H58.4425L55.2147 68.9742L51.8248 76.5596Z" fill="#074A81"/>
<path fill-rule="evenodd" clip-rule="evenodd" d="M60.9542 69.3931H59.913V76.5605H62.9557V75.5283H60.9542V69.3931Z" fill="#074A81"/>
<path fill-rule="evenodd" clip-rule="evenodd" d="M66.0704 73.7985L67.1225 71.3703L68.1335 73.7985H66.0704ZM63.7726 76.5596H64.8961L65.6423 74.8294H68.552L69.2667 76.5596H70.3902L67.1624 68.9742L63.7726 76.5596Z" fill="#074A81"/>
<path fill-rule="evenodd" clip-rule="evenodd" d="M72.4727 70.1987C71.9006 70.7685 71.3806 71.681 71.3806 73.0018C71.3806 74.013 71.6769 74.9256 72.4727 75.7111C72.8718 76.1082 73.647 76.6989 74.8829 76.6989C75.3522 76.6989 76.0681 76.5916 76.7514 76.1612V74.8615C76.3632 75.2487 75.7307 75.6889 74.9144 75.6889C73.4631 75.6889 72.4219 74.5186 72.4219 73.0018C72.4219 71.4233 73.422 70.2739 74.9035 70.2739C75.2917 70.2739 75.9955 70.3492 76.7514 71.0693V69.7794C76.1588 69.3823 75.5565 69.2639 74.9337 69.2639C73.9953 69.2639 73.1777 69.5007 72.4727 70.1987Z" fill="#074A81"/>
<path fill-rule="evenodd" clip-rule="evenodd" d="M82.4085 70.4239V69.393H78.651V76.5603H82.4085V75.5282H79.6923V73.1641H82.3275V72.1331H79.6923V70.4239H82.4085Z" fill="#074A81"/>
</g>
</svg>
