<svg width="100" height="123" viewBox="0 0 100 123" fill="none" xmlns="http://www.w3.org/2000/svg">
<path fill-rule="evenodd" clip-rule="evenodd" d="M48.7788 44.3938C48.7788 45.0983 49.3443 45.6674 50.0426 45.6674C50.7409 45.6674 51.3063 45.0983 51.3063 44.3938C51.3063 43.6892 50.7409 43.1187 50.0426 43.1187C49.3443 43.1187 48.7788 43.6892 48.7788 44.3938Z" fill="black"/>
<mask id="mask0" mask-type="alpha" maskUnits="userSpaceOnUse" x="48" y="43" width="4" height="3">
<path d="M48.7791 44.3933C48.7791 45.0979 49.3445 45.6669 50.0428 45.6669C50.7411 45.6669 51.3066 45.0979 51.3066 44.3933C51.3066 43.6887 50.7411 43.1182 50.0428 43.1182C49.3445 43.1182 48.7791 43.6887 48.7791 44.3933Z" fill="white"/>
</mask>
<g mask="url(#mask0)">
<path fill-rule="evenodd" clip-rule="evenodd" d="M48.7791 45.6664H51.3066V43.1191H48.7791V45.6664Z" fill="black"/>
</g>
<path fill-rule="evenodd" clip-rule="evenodd" d="M44.2249 0.923341C44.2249 0.923341 45.623 3.19961 46.5383 5.50448C47.2839 7.38632 47.7165 8.4552 48.555 9.62495C49.2534 10.602 50.3562 10.9001 51.4325 10.9001C51.8237 10.9001 52.5722 10.8384 53.2292 10.313L53.1642 8.85415L53.1318 7.50676C52.8099 7.80484 52.4275 8.16766 52.1854 8.24143C51.7558 8.37692 51.2981 8.45972 50.6795 8.21583C50.0609 7.97044 49.6032 6.96931 49.4408 6.61552C49.1603 6.00129 48.2849 3.95235 47.8021 2.90002C47.1289 1.4352 46.1884 0.000488281 46.1884 0.000488281L44.2249 0.923341Z" fill="black"/>
<mask id="mask1" mask-type="alpha" maskUnits="userSpaceOnUse" x="44" y="0" width="10" height="11">
<path d="M46.1864 0.000976562L44.2258 0.922324C44.2258 0.922324 45.6225 3.19859 46.5393 5.50347C47.2834 7.3853 47.716 8.45569 48.5545 9.62394C49.2528 10.601 50.3557 10.8991 51.432 10.8991C51.8247 10.8991 52.5717 10.8389 53.2287 10.3119L53.1637 8.85314L53.1313 7.50725C52.8109 7.80533 52.427 8.16664 52.1864 8.24041C51.7568 8.3759 51.2976 8.4587 50.6805 8.21482C50.0604 7.96943 49.6027 6.96829 49.4403 6.6145C49.1598 6.00178 48.2844 3.95133 47.8016 2.90051C47.1402 1.45978 46.2219 0.0491516 46.1894 0.000976562H46.1864Z" fill="white"/>
</mask>
<g mask="url(#mask1)">
<path fill-rule="evenodd" clip-rule="evenodd" d="M44.2249 10.8996H53.2292V0H44.2249V10.8996Z" fill="black"/>
</g>
<path fill-rule="evenodd" clip-rule="evenodd" d="M34.9038 29.9888H34.9052C35.0485 30.2552 35.2035 30.5353 35.3393 30.7671C35.6567 31.3046 36.1956 32.1205 36.1956 32.1205C36.1956 32.1205 37.5804 32.4758 38.481 32.6489C39.3816 32.8221 40.4446 32.8642 41.0454 32.8642C41.2123 32.8642 41.3939 32.9229 41.6389 32.9094C41.6389 32.9094 41.763 32.3373 41.8973 31.9925C42.0331 31.6493 42.321 31.148 42.321 31.148L41.9888 31.1359C40.8742 31.0923 39.3742 30.8333 38.4382 30.5714C37.8535 30.4118 37.297 30.1815 36.8245 29.9888H36.8186C36.5381 29.8728 36.2856 29.772 36.079 29.7072C35.5209 29.5341 34.4077 29.0388 34.4077 29.0388C34.4077 29.0388 34.6366 29.4905 34.9038 29.9888Z" fill="black"/>
<mask id="mask2" mask-type="alpha" maskUnits="userSpaceOnUse" x="34" y="29" width="9" height="4">
<path d="M34.9043 29.9888H34.9057C35.0475 30.2552 35.204 30.5353 35.3383 30.7671C35.6572 31.3045 36.1961 32.1205 36.1961 32.1205C36.1961 32.1205 37.5809 32.4773 38.4815 32.6489C39.3821 32.8221 40.4451 32.8642 41.0459 32.8642C41.2128 32.8642 41.3944 32.9229 41.638 32.9109C41.638 32.9109 41.7635 32.3373 41.8978 31.9925C42.0336 31.6493 42.3215 31.148 42.3215 31.148L41.9893 31.1359C40.8747 31.0938 39.3747 30.8333 38.4372 30.5699C37.8526 30.4118 37.296 30.1815 36.825 29.9888H36.8191C36.5386 29.8728 36.2861 29.772 36.0809 29.7057C35.5214 29.5341 34.4067 29.0388 34.4067 29.0388C34.4067 29.0388 34.6356 29.4905 34.9043 29.9888Z" fill="white"/>
</mask>
<g mask="url(#mask2)">
<path fill-rule="evenodd" clip-rule="evenodd" d="M34.4067 32.9229H42.32V29.0388H34.4067V32.9229Z" fill="black"/>
</g>
<path fill-rule="evenodd" clip-rule="evenodd" d="M40.7886 37.1884L42.0346 37.8388L41.6892 36.3665L40.7886 37.1884Z" fill="black"/>
<mask id="mask3" mask-type="alpha" maskUnits="userSpaceOnUse" x="40" y="36" width="3" height="2">
<path d="M40.7876 37.1882L42.0336 37.8385L41.6897 36.3677L40.7876 37.1882Z" fill="white"/>
</mask>
<g mask="url(#mask3)">
<path fill-rule="evenodd" clip-rule="evenodd" d="M40.7886 37.839H42.0346V36.3667H40.7886V37.839Z" fill="black"/>
</g>
<path fill-rule="evenodd" clip-rule="evenodd" d="M40.8744 33.644C40.4034 33.7314 39.8882 33.9466 39.4172 34.1183C38.6318 34.4073 37.9202 34.2884 37.9202 34.2884L39.5885 36.0588C39.5885 36.0588 40.3606 35.7637 41.2169 35.3287C41.3586 35.2579 41.4413 35.2609 41.5742 35.2037V34.451C41.5683 34.0806 41.5417 33.4995 41.5417 33.4995L40.8744 33.644Z" fill="black"/>
<mask id="mask4" mask-type="alpha" maskUnits="userSpaceOnUse" x="37" y="33" width="5" height="4">
<path d="M40.8746 33.644C40.4022 33.7298 39.8884 33.9466 39.4174 34.1198C38.632 34.4058 37.9204 34.2869 37.9204 34.2869L39.5902 36.0573C39.5902 36.0573 40.3594 35.7637 41.2171 35.3287C41.3589 35.2579 41.4415 35.2609 41.5729 35.2037V34.451C41.5685 34.0791 41.5419 33.4995 41.5419 33.4995L40.8746 33.644Z" fill="white"/>
</mask>
<g mask="url(#mask4)">
<path fill-rule="evenodd" clip-rule="evenodd" d="M37.9204 36.0573H41.5744V33.4995H37.9204V36.0573Z" fill="black"/>
</g>
<path fill-rule="evenodd" clip-rule="evenodd" d="M46.4934 41.8095L47.394 43.1042C47.394 43.1042 47.5667 42.8889 47.8664 42.63C48.1661 42.3695 48.8526 41.8953 50.0869 41.939C51.3226 41.9811 52.7901 44.0572 52.7901 44.0572L54.2916 43.2788C54.2916 43.2788 53.9062 42.5878 53.1341 41.8095C52.362 41.0282 51.4599 40.1655 49.5391 40.0797C49.4949 40.0752 49.4506 40.0752 49.4063 40.0752C47.5653 40.0752 46.4934 41.8095 46.4934 41.8095Z" fill="black"/>
<mask id="mask5" mask-type="alpha" maskUnits="userSpaceOnUse" x="46" y="40" width="9" height="5">
<path d="M46.4937 41.81L47.3942 43.1047C47.3942 43.1047 47.5655 42.8879 47.8681 42.629C48.1664 42.3701 48.8529 41.8958 50.0871 41.938C51.3228 41.9816 52.7903 44.0577 52.7903 44.0577L54.2918 43.2794C54.2918 43.2794 53.905 42.5884 53.1343 41.81C52.3607 41.0287 51.4601 40.1661 49.5394 40.0802C49.4951 40.0742 49.4508 40.0742 49.4065 40.0742C47.5655 40.0742 46.4937 41.81 46.4937 41.81Z" fill="white"/>
</mask>
<g mask="url(#mask5)">
<path fill-rule="evenodd" clip-rule="evenodd" d="M46.4937 44.0577H54.2918V40.0742H46.4937V44.0577Z" fill="black"/>
</g>
<path fill-rule="evenodd" clip-rule="evenodd" d="M43.8549 33.2102C43.8549 33.2102 43.7604 33.7251 43.7531 34.0578C43.7472 34.3137 43.7855 34.7127 43.7855 34.7127C44.5488 34.6494 45.4169 34.5079 46.7087 34.5079C48.253 34.5079 49.5817 34.6374 50.001 34.7262C50.7687 34.8828 52.5758 35.1568 53.8204 35.5015C55.0635 35.8493 55.9936 36.1684 57.5526 36.4981C59.3966 36.8866 60.1304 36.9844 61.7957 37.019C62.9251 37.0401 64.6879 36.8775 64.6879 36.8775C64.6879 36.8775 65.3124 36.2633 65.6638 35.8282C66.0255 35.3796 66.5112 34.6148 66.5112 34.6148C66.5112 34.6148 65.0511 34.8737 64.1106 34.94C62.373 35.0619 61.4886 34.8978 59.652 34.7262C57.8184 34.5531 56.1368 34.1195 54.7638 33.7732C53.3893 33.4285 51.848 33.2102 49.5389 33.1244C49.1137 33.1078 48.6472 33.1018 48.1674 33.1018C46.4415 33.1018 44.5606 33.1846 43.8549 33.2102Z" fill="black"/>
<mask id="mask6" mask-type="alpha" maskUnits="userSpaceOnUse" x="43" y="33" width="24" height="5">
<path d="M43.8539 33.2107C43.8539 33.2107 43.7609 33.7256 43.7521 34.0583C43.7476 34.3142 43.786 34.7131 43.786 34.7131C44.5478 34.6484 45.4174 34.5084 46.7092 34.5084C48.2535 34.5084 49.5807 34.6379 50.0015 34.7267C50.7677 34.8833 52.5763 35.1573 53.8194 35.502C55.064 35.8498 55.9941 36.1674 57.5531 36.4971C59.3971 36.887 60.1308 36.9834 61.7947 37.018C62.9256 37.0406 64.6884 36.8765 64.6884 36.8765C64.6884 36.8765 65.3129 36.2638 65.6643 35.8287C66.026 35.3801 66.5117 34.6138 66.5117 34.6138C66.5117 34.6138 65.0516 34.8742 64.1111 34.9405C62.3749 35.0624 61.4876 34.8983 59.6525 34.7267C57.8189 34.5521 56.1373 34.12 54.7643 33.7737C53.3898 33.429 51.847 33.2107 49.5394 33.1249C49.1142 33.1068 48.6477 33.1023 48.1679 33.1023C46.442 33.1023 44.5611 33.1851 43.8539 33.2107Z" fill="white"/>
</mask>
<g mask="url(#mask6)">
<path fill-rule="evenodd" clip-rule="evenodd" d="M43.7468 37.0396H66.5109V33.1013H43.7468V37.0396Z" fill="black"/>
</g>
<path fill-rule="evenodd" clip-rule="evenodd" d="M65.0922 31.2649C63.6764 31.697 61.36 31.7858 59.9545 31.7406C58.5475 31.697 54.7636 31.0044 53.519 30.7892C52.2759 30.5709 50.4305 30.5302 49.2819 30.5302C48.1318 30.5302 45.3385 30.8885 44.5649 30.9758C44.5649 30.9758 44.3479 31.4787 44.2238 31.8038C44.091 32.1546 43.9153 32.7116 43.9153 32.7116C44.9871 32.6258 46.4517 32.5611 48.4226 32.4768C50.398 32.388 50.9885 32.388 52.4472 32.5189C53.9058 32.6484 56.1794 33.1241 57.5096 33.3816C58.8384 33.6435 60.2955 33.773 61.4456 33.773C62.5957 33.773 63.9333 33.5547 65.0922 33.2536C66.2512 32.9525 67.2256 32.3533 67.2256 32.3533L67.4544 30.2878C67.4544 30.2878 66.5066 30.8328 65.0922 31.2649Z" fill="black"/>
<mask id="mask7" mask-type="alpha" maskUnits="userSpaceOnUse" x="43" y="30" width="25" height="4">
<path d="M65.0915 31.2657C63.6771 31.6977 61.3607 31.7866 59.9538 31.7414C58.5483 31.6977 54.7643 31.0037 53.5198 30.7884C52.2767 30.5701 50.4312 30.5295 49.2826 30.5295C48.1325 30.5295 45.3378 30.8893 44.5656 30.9766C44.5656 30.9766 44.3471 31.4779 44.2246 31.8046C44.0917 32.1539 43.916 32.7109 43.916 32.7109C44.9864 32.6266 46.4509 32.5619 48.4234 32.4776C50.3973 32.3887 50.9893 32.3887 52.4464 32.5197C53.9051 32.6492 56.1802 33.1249 57.5104 33.3824C58.8391 33.6443 60.2963 33.7738 61.4464 33.7738C62.5964 33.7738 63.934 33.5555 65.0915 33.2544C66.2504 32.9533 67.2263 32.3526 67.2263 32.3526L67.4537 30.2871C67.4537 30.2871 66.5073 30.8336 65.0915 31.2657Z" fill="white"/>
</mask>
<g mask="url(#mask7)">
<path fill-rule="evenodd" clip-rule="evenodd" d="M43.916 33.7723H67.4537V30.2871H43.916V33.7723Z" fill="black"/>
</g>
<path fill-rule="evenodd" clip-rule="evenodd" d="M45.6351 35.3729C44.8201 35.4602 43.8767 35.6318 43.8767 35.6318L44.392 37.3195C44.392 37.3195 45.0357 37.1885 46.1075 37.059C47.1808 36.9295 47.7773 36.8302 49.0676 36.9295C50.1749 37.0153 51.8476 37.4068 52.9194 37.8825C53.6768 38.2182 55.3643 39.0402 56.2221 39.4286C57.0798 39.817 57.852 39.8622 58.6241 39.9917C59.3962 40.1211 60.9479 40.0368 60.9479 40.0368L62.8997 38.4937C62.8997 38.4937 62.2633 38.5645 61.4041 38.5223C60.5463 38.4787 59.0965 38.0978 57.5523 37.7109C56.008 37.3195 54.849 36.7564 53.5631 36.2822C52.2757 35.8049 50.5587 35.3292 49.3673 35.2434C49.0912 35.2223 48.7871 35.2163 48.4712 35.2163C47.4244 35.2163 46.2625 35.3066 45.6351 35.3729Z" fill="black"/>
<mask id="mask8" mask-type="alpha" maskUnits="userSpaceOnUse" x="43" y="35" width="20" height="6">
<path d="M45.6358 35.3724C44.8208 35.4597 43.8774 35.6313 43.8774 35.6313L44.3912 37.319C44.3912 37.319 45.0349 37.188 46.1082 37.06C47.1801 36.929 47.7765 36.8297 49.0669 36.929C50.1741 37.0149 51.8469 37.4063 52.9187 37.882C53.6761 38.2177 55.3635 39.0382 56.2228 39.4296C57.0791 39.8165 57.8512 39.8632 58.6248 39.9927C59.397 40.1221 60.9472 40.0363 60.9472 40.0363L62.9004 38.4947C62.9004 38.4947 62.2626 38.564 61.4034 38.5218C60.5456 38.4782 59.0958 38.0973 57.553 37.7089C56.0072 37.319 54.8498 36.7559 53.5624 36.2817C52.2765 35.8045 50.5595 35.3287 49.368 35.2429C49.0905 35.2233 48.7863 35.2158 48.4719 35.2158C47.4251 35.2158 46.2618 35.3061 45.6358 35.3724Z" fill="white"/>
</mask>
<g mask="url(#mask8)">
<path fill-rule="evenodd" clip-rule="evenodd" d="M43.8765 40.1221H62.8994V35.2158H43.8765V40.1221Z" fill="black"/>
</g>
<path fill-rule="evenodd" clip-rule="evenodd" d="M44.9055 38.6072L45.6393 40.1669C45.6393 40.1669 46.3213 39.8176 46.751 39.6897C47.1806 39.5602 48.3381 39.3855 48.9375 39.3855C49.5398 39.3855 50.56 39.5602 51.589 39.9064C52.6195 40.2527 53.3902 40.8127 53.9911 41.159C54.5919 41.5052 56.1229 42.5937 56.1229 42.5937L58.2386 41.6754C58.2386 41.6754 57.9374 41.4179 57.552 41.2463C57.1667 41.0732 55.7922 40.0796 55.0629 39.7303C54.3336 39.3855 53.2204 38.693 52.2755 38.3468C51.3321 38.002 49.624 37.71 47.9099 37.6648H47.7992C46.1383 37.6648 44.9055 38.6072 44.9055 38.6072Z" fill="black"/>
<mask id="mask9" mask-type="alpha" maskUnits="userSpaceOnUse" x="44" y="37" width="15" height="6">
<path d="M47.8002 37.6655C46.1393 37.6655 44.905 38.6064 44.905 38.6064L45.6388 40.1676C45.6388 40.1676 46.3209 39.8168 46.752 39.6889C47.1801 39.5594 48.3376 39.3848 48.9385 39.3848C49.5393 39.3848 50.5595 39.5594 51.5885 39.9072C52.619 40.2534 53.3897 40.8135 53.992 41.1597C54.5914 41.5045 56.1224 42.5944 56.1224 42.5944L58.2395 41.6761C58.2395 41.6761 57.9384 41.4187 57.553 41.2455C57.1662 41.0724 55.7917 40.0803 55.0639 39.7295C54.3346 39.3848 53.2199 38.6923 52.2765 38.3475C51.3316 38.0012 49.6235 37.7092 47.9094 37.6655H47.8002Z" fill="white"/>
</mask>
<g mask="url(#mask9)">
<path fill-rule="evenodd" clip-rule="evenodd" d="M44.905 42.5944H58.2381V37.6655H44.905V42.5944Z" fill="black"/>
</g>
<path fill-rule="evenodd" clip-rule="evenodd" d="M57.5454 15.149C56.5814 15.7195 55.7 16.388 54.0715 17.0127C54.0715 17.0127 53.9564 17.9461 53.7482 18.5046C53.5681 18.9909 53.1311 19.6834 53.1311 19.6834C53.8885 19.4411 54.7433 19.0632 55.9436 18.5257C58.2585 17.487 61.1433 15.3115 61.1433 15.3115L60.4494 13.0488C60.4494 13.0488 58.8742 14.3601 57.5454 15.149Z" fill="black"/>
<mask id="mask10" mask-type="alpha" maskUnits="userSpaceOnUse" x="53" y="13" width="9" height="7">
<path d="M57.5457 15.1494C56.5816 15.72 55.7002 16.3884 54.0718 17.0132C54.0718 17.0132 53.9552 17.9466 53.7485 18.5036C53.5684 18.9899 53.1313 19.6824 53.1313 19.6824C53.8887 19.44 54.7421 19.0622 55.9438 18.5247C58.2573 17.4859 61.1421 15.312 61.1421 15.312L60.4497 13.0493C60.4497 13.0493 58.8744 14.3591 57.5457 15.1494Z" fill="white"/>
</mask>
<g mask="url(#mask10)">
<path fill-rule="evenodd" clip-rule="evenodd" d="M53.1313 19.6824H61.1421V13.0493H53.1313V19.6824Z" fill="black"/>
</g>
<path fill-rule="evenodd" clip-rule="evenodd" d="M56.8657 11.5235C56.1378 12.2191 55.1236 13.0516 54.1182 13.6779L54.1403 16.3425C54.381 16.2311 54.6172 16.1077 54.8475 15.9692C57.6098 14.3147 59.9306 11.3865 59.9306 11.3865L59.312 8.95068C59.312 8.95068 57.9951 10.4381 56.8657 11.5235Z" fill="black"/>
<mask id="mask11" mask-type="alpha" maskUnits="userSpaceOnUse" x="54" y="8" width="6" height="9">
<path d="M56.8652 11.5228C56.1388 12.2183 55.1231 13.0508 54.1177 13.6771L54.1398 16.3433C54.3805 16.2319 54.6182 16.107 54.847 15.9684C57.6093 14.3139 59.9301 11.3858 59.9301 11.3858L59.3115 8.94995C59.3115 8.94995 57.9946 10.4374 56.8652 11.5228Z" fill="white"/>
</mask>
<g mask="url(#mask11)">
<path fill-rule="evenodd" clip-rule="evenodd" d="M54.1177 16.3418H59.9301V8.94995H54.1177V16.3418Z" fill="black"/>
</g>
<path fill-rule="evenodd" clip-rule="evenodd" d="M56.3003 6.99675C55.574 8.21618 54.9554 9.00203 54.3634 9.73369C54.2113 9.92037 54.0888 10.0905 53.947 10.2395L54.0312 13.0307C55.0469 12.3698 55.9814 11.3671 56.8909 10.0318C58.1709 8.16048 58.7275 6.8176 58.7275 6.8176L57.7177 4.24927C57.7177 4.24927 57.0267 5.77581 56.3003 6.99675Z" fill="black"/>
<mask id="mask12" mask-type="alpha" maskUnits="userSpaceOnUse" x="53" y="4" width="6" height="10">
<path d="M56.3011 6.99602C55.5747 8.21545 54.9561 9.0013 54.3641 9.73447C54.212 9.91964 54.0895 10.0898 53.9463 10.2403L54.0319 13.0299C55.0477 12.3705 55.9822 11.3679 56.8916 10.031C58.1702 8.16125 58.7268 6.81687 58.7268 6.81687L57.7184 4.24854C57.7184 4.24854 57.026 5.77659 56.3011 6.99602Z" fill="white"/>
</mask>
<g mask="url(#mask12)">
<path fill-rule="evenodd" clip-rule="evenodd" d="M53.9463 13.0299H58.7268V4.24854H53.9463V13.0299Z" fill="black"/>
</g>
<path fill-rule="evenodd" clip-rule="evenodd" d="M56.2161 19.4314C54.88 19.8876 53.7506 20.2805 52.636 20.55L51.8948 21.4864L50.9514 22.6667C52.3835 22.3189 53.1852 22.0886 55.0823 21.7559C57.1152 21.4021 57.4666 21.3614 59.5394 20.6132C61.6108 19.865 62.8347 18.3731 62.8347 18.3731L61.5679 16.8977C61.5679 16.8977 58.6403 18.6034 56.2161 19.4314Z" fill="black"/>
<mask id="mask13" mask-type="alpha" maskUnits="userSpaceOnUse" x="50" y="16" width="13" height="7">
<path d="M56.2154 19.4327C54.8793 19.8873 53.7513 20.2818 52.6352 20.5512L51.8941 21.4876L50.9507 22.6679C52.3842 22.3187 53.1844 22.0883 55.0815 21.7556C57.116 21.4018 57.4674 21.3627 59.5387 20.613C61.6115 19.8662 62.8339 18.3743 62.8339 18.3743L61.5672 16.8975C61.5672 16.8975 58.6411 18.6047 56.2154 19.4327Z" fill="white"/>
</mask>
<g mask="url(#mask13)">
<path fill-rule="evenodd" clip-rule="evenodd" d="M50.9507 22.6674H62.8339V16.8984H50.9507V22.6674Z" fill="black"/>
</g>
<path fill-rule="evenodd" clip-rule="evenodd" d="M65.0922 27.459C63.9776 27.9257 62.5617 28.4119 59.5677 28.6257C56.5736 28.844 53.6474 28.0657 52.0603 27.9768C50.6194 27.9001 48.0358 28.0371 46.3173 28.3201L45.1392 29.9897L44.8586 30.3856C45.9039 30.2802 47.0348 30.1523 48.3502 29.9912H48.3665C48.427 29.9836 48.4905 29.9761 48.5525 29.9686C49.4708 29.8527 50.5692 29.8903 51.644 29.9897H51.6529C53.0318 30.1146 54.3679 30.3404 55.236 30.4865C56.7788 30.7484 57.5524 30.7891 59.1395 30.7484C60.7251 30.7033 62.5809 30.3781 64.0824 29.9897L64.0145 30.0137C65.4982 29.5907 67.4086 28.2388 67.4086 28.2388L67.1931 26.0845C67.1931 26.0845 66.2069 26.9938 65.0922 27.459Z" fill="black"/>
<mask id="mask14" mask-type="alpha" maskUnits="userSpaceOnUse" x="44" y="26" width="24" height="5">
<path d="M65.0915 27.4585C63.9783 27.9252 62.5625 28.4114 59.5669 28.6267C56.5728 28.8435 53.6467 28.0652 52.0611 27.9764C50.6187 27.9011 48.0365 28.0366 46.318 28.3196L45.1399 29.9892L44.8594 30.3866C45.9032 30.2812 47.0341 30.1518 48.351 29.9907H48.3672C48.4277 29.9832 48.4912 29.9756 48.5532 29.9681C49.4715 29.8522 50.5699 29.8913 51.6433 29.9892H51.6551C53.0325 30.1141 54.3672 30.3399 55.2353 30.486C56.7795 30.7479 57.5531 30.7886 59.1388 30.7479C60.7259 30.7043 62.5802 30.3791 64.0831 29.9892L64.0137 30.0133C65.4989 29.5917 67.4094 28.2383 67.4094 28.2383L67.1938 26.084C67.1938 26.084 66.2076 26.9933 65.0915 27.4585Z" fill="white"/>
</mask>
<g mask="url(#mask14)">
<path fill-rule="evenodd" clip-rule="evenodd" d="M44.8594 30.7886H67.4094V26.084H44.8594V30.7886Z" fill="black"/>
</g>
<path fill-rule="evenodd" clip-rule="evenodd" d="M53.7291 7.07752L53.9239 9.59767C55.3752 6.21037 55.2128 3.92205 55.2128 3.92205L53.4397 2.41357C53.4663 2.44067 53.7291 7.07752 53.7291 7.07752Z" fill="black"/>
<mask id="mask15" mask-type="alpha" maskUnits="userSpaceOnUse" x="53" y="2" width="3" height="8">
<path d="M53.7278 7.07723L53.9242 9.59739C55.3755 6.21008 55.2145 3.92177 55.2145 3.92177L53.4399 2.41479C53.4665 2.44039 53.7278 7.07723 53.7278 7.07723Z" fill="white"/>
</mask>
<g mask="url(#mask15)">
<path fill-rule="evenodd" clip-rule="evenodd" d="M53.4399 9.59739H55.3755V2.41479H53.4399V9.59739Z" fill="black"/>
</g>
<path fill-rule="evenodd" clip-rule="evenodd" d="M62.4596 20.5756C61.3258 21.2831 59.3445 22.1503 57.4267 22.4649C55.5119 22.7811 53.9883 22.7811 52.7378 22.9376C51.9686 23.0355 51.2334 23.1845 50.4981 23.3276L49.6729 24.2745L48.8594 25.1928C49.4337 25.107 49.9947 24.9806 50.7063 24.9098C52.2683 24.7502 53.4405 24.8315 55.5119 24.8315C57.5832 24.8315 58.9134 24.6313 61.0143 23.7672C63.1137 22.9 64.9193 20.9625 64.9193 20.9625L63.812 19.585C63.812 19.585 63.5935 19.865 62.4596 20.5756Z" fill="black"/>
<mask id="mask16" mask-type="alpha" maskUnits="userSpaceOnUse" x="48" y="19" width="17" height="7">
<path d="M62.4589 20.5753C61.3265 21.2829 59.3438 22.15 57.4274 22.4647C55.5111 22.7808 53.9875 22.7808 52.737 22.9389C51.9693 23.0353 51.2326 23.1858 50.4974 23.3273L49.6736 24.2743L48.8601 25.1926C49.4344 25.1068 49.994 24.9803 50.7056 24.9096C52.2676 24.7515 53.4398 24.8313 55.5111 24.8313C57.5825 24.8313 58.9127 24.6326 61.0135 23.7669C63.1129 22.8998 64.9185 20.9622 64.9185 20.9622L63.8112 19.5847C63.8112 19.5847 63.5927 19.8662 62.4589 20.5753Z" fill="white"/>
</mask>
<g mask="url(#mask16)">
<path fill-rule="evenodd" clip-rule="evenodd" d="M48.8591 25.1941H64.9175V19.5847H48.8591V25.1941Z" fill="black"/>
</g>
<path fill-rule="evenodd" clip-rule="evenodd" d="M62.9915 24.3567C61.2715 25.1832 58.3114 25.7357 56.4364 25.6965C54.56 25.6559 52.5876 25.5279 50.9459 25.6077C50.1206 25.6469 49.1801 25.7628 48.3032 25.8757L46.7781 27.6627C47.1988 27.5874 47.7421 27.4369 48.4227 27.3736C50.4956 27.1764 52.3853 27.4986 54.8095 27.6958C57.2307 27.8945 57.8966 27.9713 59.7346 27.6958C61.5712 27.4188 62.8896 26.7218 64.2951 25.8155C65.7036 24.9092 66.6396 23.9141 66.6396 23.9141L65.8202 22.231C65.8202 22.231 64.71 23.5272 62.9915 24.3567Z" fill="black"/>
<mask id="mask17" mask-type="alpha" maskUnits="userSpaceOnUse" x="46" y="22" width="21" height="6">
<path d="M62.9905 24.3569C61.272 25.1834 58.3119 25.7359 56.4369 25.6953C54.559 25.6561 52.5866 25.5282 50.9463 25.608C50.1211 25.6471 49.1806 25.7615 48.3037 25.8759L46.7771 27.6629C47.1993 27.5892 47.7426 27.4371 48.4232 27.3724C50.4961 27.1767 52.3843 27.4988 54.8085 27.6961C57.2312 27.8933 57.8971 27.9716 59.7337 27.6961C61.5703 27.419 62.8887 26.722 64.2956 25.8142C65.7041 24.9094 66.6401 23.9143 66.6401 23.9143L65.8192 22.2312C65.8192 22.2312 64.709 23.5274 62.9905 24.3569Z" fill="white"/>
</mask>
<g mask="url(#mask17)">
<path fill-rule="evenodd" clip-rule="evenodd" d="M46.7781 27.9716H66.6396V22.2312H46.7781V27.9716Z" fill="black"/>
</g>
<path fill-rule="evenodd" clip-rule="evenodd" d="M34.1155 12.0733C34.1155 12.0733 35.0914 13.2957 36.3034 15.1083C37.5155 16.9194 38.0234 17.9356 38.8059 18.9187C39.5869 19.9032 41.1016 21.1272 42.3905 21.8363C43.6808 22.5438 45.5174 22.9774 46.7281 23.0963C47.639 23.1852 48.4598 23.1611 49.4903 22.9804L51.4111 20.79C50.9106 20.8682 50.4057 20.9149 49.8845 20.93C45.1661 21.0474 43.8757 20.0628 42.86 19.5088C41.8428 18.9578 40.3575 17.4222 39.5765 16.4361C38.7955 15.4516 37.672 13.8467 37.204 13.0594C36.7331 12.2705 35.0146 10.2622 35.0146 10.2622L34.1155 12.0733Z" fill="black"/>
<mask id="mask18" mask-type="alpha" maskUnits="userSpaceOnUse" x="34" y="10" width="18" height="14">
<path d="M34.1143 12.0738C34.1143 12.0738 35.0916 13.2963 36.3037 15.1088C37.5158 16.9184 38.0237 17.9346 38.8061 18.9177C39.5871 19.9038 41.1019 21.1262 42.3908 21.8368C43.6811 22.5444 45.5162 22.9779 46.7283 23.0969C47.6392 23.1857 48.4601 23.1616 49.4891 22.9809L51.4113 20.789C50.9108 20.8688 50.4045 20.9154 49.8848 20.929C45.1663 21.0464 43.876 20.0618 42.8602 19.5093C41.843 18.9583 40.3578 17.4227 39.5768 16.4367C38.7943 15.4521 37.6723 13.8473 37.2028 13.0599C36.7333 12.2695 35.0148 10.2612 35.0148 10.2612L34.1143 12.0738Z" fill="white"/>
</mask>
<g mask="url(#mask18)">
<path fill-rule="evenodd" clip-rule="evenodd" d="M34.1152 23.1852H51.4108V10.2622H34.1152V23.1852Z" fill="black"/>
</g>
<path fill-rule="evenodd" clip-rule="evenodd" d="M32.8647 16.4369C32.8647 16.4369 34.3101 17.9348 35.5621 19.4313C36.8125 20.9292 38.1811 22.662 39.5763 23.6074C40.9715 24.5559 43.059 25.5389 45.2455 25.5013C45.4744 25.4968 45.6855 25.4968 45.8833 25.4968C46.3129 25.4983 46.6879 25.4983 47.0718 25.4561L48.9246 23.5848C48.2189 23.6887 47.5767 23.7444 46.9242 23.6857C44.1176 23.4343 42.0787 22.5054 40.4754 21.3613C38.8735 20.2201 36.4612 17.5404 35.6403 16.5558C34.8195 15.5712 33.4125 14.1621 33.4125 14.1621L32.8647 16.4369Z" fill="black"/>
<mask id="mask19" mask-type="alpha" maskUnits="userSpaceOnUse" x="32" y="14" width="17" height="12">
<path d="M32.8652 16.4366C32.8652 16.4366 34.3106 17.9346 35.5626 19.4325C36.8116 20.929 38.1801 22.6617 39.5768 23.6057C40.9705 24.5541 43.058 25.5387 45.2445 25.5011C45.4734 25.4965 45.6845 25.4965 45.8838 25.4965C46.3134 25.498 46.6884 25.4981 47.0708 25.4559L48.9251 23.5846C48.2179 23.6885 47.5757 23.7442 46.9246 23.6855C44.1181 23.4341 42.0777 22.5067 40.4759 21.3625C38.8726 20.2184 36.4617 17.5401 35.6408 16.5556C34.8199 15.571 33.4115 14.1619 33.4115 14.1619L32.8652 16.4366Z" fill="white"/>
</mask>
<g mask="url(#mask19)">
<path fill-rule="evenodd" clip-rule="evenodd" d="M32.8643 25.5387H48.9241V14.1619H32.8643V25.5387Z" fill="black"/>
</g>
<path fill-rule="evenodd" clip-rule="evenodd" d="M50.3884 6.02485C50.3884 6.72941 50.9539 7.29998 51.6522 7.29998C52.349 7.29998 52.916 6.72941 52.916 6.02485C52.916 5.32179 52.349 4.75122 51.6522 4.75122C50.9539 4.75122 50.3884 5.32179 50.3884 6.02485Z" fill="black"/>
<mask id="mask20" mask-type="alpha" maskUnits="userSpaceOnUse" x="50" y="4" width="3" height="4">
<path d="M50.3882 6.02485C50.3882 6.72941 50.9536 7.29998 51.652 7.29998C52.3488 7.29998 52.9157 6.72941 52.9157 6.02485C52.9157 5.32179 52.3488 4.75122 51.652 4.75122C50.9536 4.75122 50.3882 5.32179 50.3882 6.02485Z" fill="white"/>
</mask>
<g mask="url(#mask20)">
<path fill-rule="evenodd" clip-rule="evenodd" d="M50.3882 7.29847H52.9157V4.75122H50.3882V7.29847Z" fill="black"/>
</g>
<path fill-rule="evenodd" clip-rule="evenodd" d="M32.6182 21.5194C32.6182 21.5194 34.5847 23.5698 35.8366 24.6312C37.0856 25.697 38.2195 26.5642 39.7726 27.3019C41.3243 28.0396 43.2347 28.0953 44.7613 28.023L46.4915 26.1246L46.1431 26.1713C45.1658 26.2887 43.5861 26.2059 41.4749 25.6519C39.3651 25.1009 37.1639 23.0971 35.9119 22.1125C34.6644 21.1264 32.6182 18.6033 32.6182 18.6033V21.5194Z" fill="black"/>
<mask id="mask21" mask-type="alpha" maskUnits="userSpaceOnUse" x="32" y="18" width="15" height="11">
<path d="M32.6172 21.5194C32.6172 21.5194 34.5837 23.5698 35.8357 24.6327C37.0861 25.697 38.22 26.5627 39.7716 27.3019C41.3248 28.0396 43.2337 28.0953 44.7603 28.023L46.4921 26.1246L46.1422 26.1713C45.1663 26.2887 43.5851 26.2074 41.4754 25.6519C39.3642 25.1009 37.1629 23.0971 35.911 22.1125C34.6634 21.1264 32.6172 18.6033 32.6172 18.6033V21.5194Z" fill="white"/>
</mask>
<g mask="url(#mask21)">
<path fill-rule="evenodd" clip-rule="evenodd" d="M32.6182 28.0968H46.4916V18.6033H32.6182V28.0968Z" fill="black"/>
</g>
<path fill-rule="evenodd" clip-rule="evenodd" d="M36.0327 8.45968C36.0327 8.45968 36.3428 8.84207 37.3201 10.4183C38.2975 11.996 39.1168 13.6295 40.3186 15.2674C41.1778 16.4372 42.6645 17.9351 44.4229 18.998C46.1812 20.0623 48.0075 20.2204 49.8441 20.1813C50.5867 20.1647 51.2289 20.1226 51.911 19.9856C51.911 19.9856 52.3347 19.3006 52.5458 18.8309C52.7939 18.2799 53.0434 17.36 53.0434 17.36C52.6758 17.4774 52.2757 17.5888 51.8387 17.6972C49.9474 18.1685 46.9637 17.8553 44.7743 16.3574C42.5863 14.8609 41.296 12.9415 39.9288 10.5779C38.5602 8.21279 37.3201 6.71484 37.3201 6.71484L36.0327 8.45968Z" fill="black"/>
<mask id="mask22" mask-type="alpha" maskUnits="userSpaceOnUse" x="36" y="6" width="18" height="15">
<path d="M36.0322 8.45919C36.0322 8.45919 36.3437 8.84158 37.3196 10.4178C38.297 11.9955 39.1178 13.629 40.3196 15.2684C41.1774 16.4367 42.6655 17.9346 44.4224 18.9975C46.1807 20.0618 48.0085 20.2184 49.8451 20.1808C50.5877 20.1642 51.2284 20.1236 51.912 19.9866C51.912 19.9866 52.3357 19.3001 52.5453 18.8304C52.7934 18.2794 53.0444 17.3595 53.0444 17.3595C52.6767 17.4785 52.2767 17.5884 51.8382 17.6968C49.9484 18.1695 46.9647 17.8563 44.7752 16.3569C42.5873 14.8605 41.2955 12.941 39.9283 10.5789C38.5612 8.2123 37.3196 6.71436 37.3196 6.71436L36.0322 8.45919Z" fill="white"/>
</mask>
<g mask="url(#mask22)">
<path fill-rule="evenodd" clip-rule="evenodd" d="M36.0322 20.2199H53.0429V6.71436H36.0322V20.2199Z" fill="black"/>
</g>
<path fill-rule="evenodd" clip-rule="evenodd" d="M38.3621 5.50445C38.3621 5.50445 39.7882 7.67383 40.8896 9.54513C41.9939 11.4134 42.611 12.9595 44.0372 14.3958C45.4619 15.832 47.3443 16.9731 49.2266 17.1071C50.5229 17.2019 51.9062 17.1146 53.1907 16.7142L53.4387 14.0615C53.1124 14.2362 52.7979 14.3792 52.5086 14.4786C51.1636 14.9392 50.0873 14.7766 48.7424 14.5598C47.3974 14.3416 45.5962 13.0664 44.6026 11.7657C44.0859 11.0912 43.4452 10.0856 42.8546 8.86466C42.2626 7.64523 41.8315 6.83378 41.2941 5.96512C40.7567 5.09797 39.9462 3.95532 39.9462 3.95532L38.3621 5.50445Z" fill="black"/>
<mask id="mask23" mask-type="alpha" maskUnits="userSpaceOnUse" x="38" y="3" width="16" height="15">
<path d="M38.3618 5.50396C38.3618 5.50396 39.7895 7.67485 40.8908 9.54464C41.9951 11.4129 42.6108 12.959 44.037 14.3953C45.4631 15.833 47.344 16.9741 49.2264 17.1066C50.5241 17.2015 51.9075 17.1156 53.1904 16.7152L53.4384 14.061C53.1136 14.2357 52.7977 14.3772 52.5083 14.4781C51.1634 14.9387 50.0871 14.7761 48.7436 14.5594C47.3972 14.3411 45.596 13.0674 44.6009 11.7652C44.0857 11.0908 43.4449 10.0851 42.8544 8.86417C42.2609 7.64474 41.8313 6.83329 41.2939 5.96464C40.7565 5.09749 39.9474 3.95483 39.9474 3.95483L38.3618 5.50396Z" fill="white"/>
</mask>
<g mask="url(#mask23)">
<path fill-rule="evenodd" clip-rule="evenodd" d="M38.3618 17.2015H53.4384V3.95483H38.3618V17.2015Z" fill="black"/>
</g>
<path fill-rule="evenodd" clip-rule="evenodd" d="M33.2606 25.3198C33.4259 26.0018 33.7227 27.0616 33.7227 27.0616C33.7227 27.0616 36.1247 28.6228 37.4091 29.1873C38.0174 29.4568 38.6611 29.7429 39.3446 29.9898C40.3427 30.345 41.4204 30.616 42.5823 30.616C42.5823 30.616 42.7418 30.3481 43.0164 29.9928H43.0223C43.1212 29.8693 43.2349 29.7353 43.3618 29.5983C43.7531 29.1783 44.2742 28.5144 44.2742 28.5144C42.9809 28.5851 41.6862 28.5294 40.7044 28.2825C39.3299 27.9348 36.6606 26.4429 35.5445 25.7503C34.4298 25.0578 32.8472 23.4214 32.8472 23.4214C32.8472 23.4214 33.0819 24.5836 33.2606 25.3198Z" fill="black"/>
<mask id="mask24" mask-type="alpha" maskUnits="userSpaceOnUse" x="32" y="23" width="13" height="8">
<path d="M33.261 25.3205C33.4264 26.0025 33.7232 27.0608 33.7232 27.0608C33.7232 27.0608 36.1252 28.6235 37.4082 29.1881C38.0164 29.4575 38.6601 29.7436 39.3437 29.989C40.3432 30.3443 41.4209 30.6153 42.5813 30.6153C42.5813 30.6153 42.7408 30.3473 43.0169 29.9935H43.0228C43.1217 29.87 43.2354 29.7346 43.3623 29.5976C43.7521 29.1775 44.2747 28.5136 44.2747 28.5136C42.9814 28.5844 41.6852 28.5287 40.7034 28.2818C39.3304 27.9355 36.6611 26.4436 35.5435 25.7496C34.4303 25.0571 32.8462 23.4221 32.8462 23.4221C32.8462 23.4221 33.0824 24.5828 33.261 25.3205Z" fill="white"/>
</mask>
<g mask="url(#mask24)">
<path fill-rule="evenodd" clip-rule="evenodd" d="M32.8462 30.6153H44.2732V23.4221H32.8462V30.6153Z" fill="black"/>
</g>
<path fill-rule="evenodd" clip-rule="evenodd" d="M41.1604 2.95657C41.1604 2.95657 42.0433 3.87792 43.1771 6.29119C44.1441 8.35067 44.7066 9.90582 45.622 11.2246C46.6982 12.7707 48.151 14.0428 51.083 13.9646C51.9187 13.939 52.7085 13.7448 53.4334 13.3865L53.2695 10.8287C52.8694 11.1147 52.4531 11.2818 51.9438 11.3601C51.2454 11.47 50.5722 11.47 49.307 10.9807C48.0432 10.493 47.0481 9.43461 46.403 8.07818C45.7593 6.72476 45.2204 5.63932 44.4409 4.1203C43.6614 2.60279 42.8538 1.73413 42.8538 1.73413L41.1604 2.95657Z" fill="black"/>
<mask id="mask25" mask-type="alpha" maskUnits="userSpaceOnUse" x="41" y="1" width="13" height="13">
<path d="M41.1597 2.95653C41.1597 2.95653 42.044 3.87788 43.1764 6.28964C44.1434 8.35063 44.7059 9.90578 45.6227 11.2246C46.699 12.7692 48.1517 14.0428 51.0823 13.963C51.9194 13.9389 52.7093 13.7447 53.4327 13.3864L53.2688 10.8286C52.8702 11.1147 52.4538 11.2818 51.9445 11.3601C51.2447 11.47 50.573 11.47 49.3077 10.9807C48.0425 10.4929 47.0474 9.43306 46.4037 8.07814C45.7585 6.72472 45.2197 5.63928 44.4401 4.12026C43.6606 2.60275 42.8545 1.7356 42.8545 1.7356L41.1597 2.95653Z" fill="white"/>
</mask>
<g mask="url(#mask25)">
<path fill-rule="evenodd" clip-rule="evenodd" d="M41.1606 14.0433H53.4337V1.73462H41.1606V14.0433Z" fill="black"/>
</g>
<path fill-rule="evenodd" clip-rule="evenodd" d="M28.697 53.2752C26.8575 53.2948 25.6173 53.6034 24.2369 54.8318C22.6321 56.262 22.015 57.8006 22.1567 59.9565C22.1981 60.5767 22.297 61.1036 22.4609 61.5794L22.4683 61.5869H22.4609C22.7532 62.4555 23.2522 63.1736 23.986 64.0092C25.4608 65.6863 27.4687 66.2885 28.4889 66.6212C29.2462 66.8666 29.7497 66.996 30.2708 67.6208C30.7861 68.2396 31.1803 68.7695 31.3604 69.4198C31.446 69.7315 31.4859 70.0702 31.4593 70.4631C31.3958 71.4673 31.1035 72.1252 30.355 72.7876C29.7379 73.3386 29.227 73.5689 28.4047 73.6111C27.4687 73.6577 26.8796 73.3762 26.1459 72.7876C25.2866 72.1056 24.7478 71.2475 24.7478 70.3367H21.3743C21.3743 72.348 22.0504 73.8805 23.6065 75.3258C25.1228 76.7409 26.5105 77.2603 28.5745 77.1805C30.8407 77.0917 32.3776 76.333 33.7536 74.5189C34.8933 73.0164 35.2299 71.7518 35.1177 69.867C35.1074 69.7134 35.0956 69.5644 35.0808 69.4198C34.8919 67.5862 34.2541 66.3291 32.822 65.0419C32.072 64.366 31.5272 64.1221 30.6104 63.7036C29.8619 63.3633 29.4662 63.3603 28.6144 63.0171C27.7492 62.6633 26.9756 62.2252 26.4913 61.5794H26.4884C26.4899 61.5809 26.4913 61.5839 26.4913 61.5839H26.4884V61.5794C26.1828 61.1744 25.9953 60.6866 25.9746 60.0904C25.9392 59.1315 26.2315 58.5127 26.8737 57.8021C27.4362 57.1759 28.0046 56.8567 28.7428 56.7272C29.4662 56.5993 29.7172 56.5978 30.5691 56.7272V53.4965C29.9682 53.3339 29.4913 53.2737 28.824 53.2737C28.7827 53.2737 28.7413 53.2752 28.697 53.2752Z" fill="black"/>
<mask id="mask26" mask-type="alpha" maskUnits="userSpaceOnUse" x="21" y="53" width="15" height="25">
<path d="M28.6961 53.2754C26.858 53.2935 25.6178 53.6036 24.2374 54.8321C22.6326 56.2623 22.0155 57.8009 22.1572 59.9567C22.1986 60.577 22.296 61.1039 22.4614 61.5796L22.4673 61.5856H22.4614C22.7537 62.4543 23.2527 63.1739 23.9865 64.0094C25.4613 65.6865 27.4707 66.2872 28.4894 66.6214C29.2467 66.8668 29.7502 66.9963 30.2713 67.621C30.7866 68.2398 31.1793 68.7697 31.3609 69.4186C31.4465 69.7302 31.4849 70.0704 31.4583 70.4634C31.3948 71.4675 31.104 72.1239 30.3555 72.7878C29.7384 73.3388 29.2275 73.5692 28.4037 73.6113C27.4707 73.658 26.8801 73.375 26.1464 72.7878C25.2871 72.1058 24.7468 71.2462 24.7468 70.3354H21.3733C21.3733 72.3482 22.0509 73.8793 23.6056 75.326C25.1233 76.7412 26.511 77.2591 28.575 77.1793C30.8397 77.092 32.3766 76.3332 33.7541 74.5191C34.8938 73.0166 35.2304 71.7521 35.1168 69.8657C35.1079 69.7121 35.0961 69.5646 35.0813 69.4186C34.8924 67.5849 34.2531 66.3278 32.8225 65.0422C32.071 64.3662 31.5262 64.1223 30.6109 63.7023C29.8624 63.3636 29.4652 63.3606 28.6149 63.0173C27.7497 62.6635 26.9761 62.2254 26.4918 61.5796H26.4889C26.1833 61.1746 25.9973 60.6869 25.9736 60.0907C25.9397 59.1317 26.232 58.5115 26.8727 57.8024C27.4367 57.1761 28.0036 56.8554 28.7433 56.7275C29.4652 56.598 29.7177 56.598 30.5681 56.7275V53.4967C29.9687 53.3341 29.4903 53.2739 28.826 53.2739C28.7832 53.2739 28.7418 53.2754 28.6961 53.2754Z" fill="white"/>
</mask>
<g mask="url(#mask26)">
<path fill-rule="evenodd" clip-rule="evenodd" d="M21.3733 77.2606H35.2304V53.2739H21.3733V77.2606Z" fill="black"/>
</g>
<path fill-rule="evenodd" clip-rule="evenodd" d="M17.0926 53.3518L11.3658 61.5792L5.90915 69.4197L0.718262 76.8763L4.54057 76.8748L9.43176 69.9105L17.5089 69.8879L17.4514 76.8748H20.8765L20.881 69.4197L20.8854 61.5792L20.8883 53.3066L17.0926 53.3518ZM11.9298 66.1799L15.3535 61.5792L17.2329 59.05V61.5792V66.1874L11.9298 66.1799Z" fill="black"/>
<mask id="mask27" mask-type="alpha" maskUnits="userSpaceOnUse" x="0" y="53" width="21" height="24">
<path d="M17.0933 53.3523L11.3665 61.5797L5.90841 69.4187L0.718994 76.8768L4.53982 76.8753L9.43101 69.911L17.5082 69.8884L17.4506 76.8753H20.8758L20.8802 69.4187L20.8846 61.5797L20.8891 53.3057L17.0933 53.3523ZM11.9305 66.1804L15.3542 61.5797L17.2336 59.0505V61.5797V66.188L11.9305 66.1804Z" fill="white"/>
</mask>
<g mask="url(#mask27)">
<path fill-rule="evenodd" clip-rule="evenodd" d="M0.718994 76.8753H20.8891V53.3057H0.718994V76.8753Z" fill="black"/>
</g>
<path fill-rule="evenodd" clip-rule="evenodd" d="M46.4011 53.4136V61.5792V69.4197V76.8417H57.9773V73.8247H49.8204V69.4197V66.5879H57.9773V63.02H49.8204V61.5792V56.6413H57.9773V53.4136H46.4011Z" fill="black"/>
<mask id="mask28" mask-type="alpha" maskUnits="userSpaceOnUse" x="46" y="53" width="12" height="24">
<path d="M46.4021 53.4126V61.5798V69.4187V76.8407H57.9783V73.8237H49.8199V69.4187V66.587H57.9783V63.019H49.8199V61.5798V56.6403H57.9783V53.4126H46.4021Z" fill="white"/>
</mask>
<g mask="url(#mask28)">
<path fill-rule="evenodd" clip-rule="evenodd" d="M46.4011 76.8417H57.9773V53.4136H46.4011V76.8417Z" fill="black"/>
</g>
<path fill-rule="evenodd" clip-rule="evenodd" d="M64.8081 53.322H59.1418L59.1478 61.578L59.1537 69.4185L59.1581 76.8254H62.5685V69.4185V66.8562H63.0675L64.4745 69.4185L68.5374 76.8254L72.3095 76.8405L68.4666 69.4185L66.7289 66.0718C68.1964 65.6894 69.4173 65.4968 70.6826 64.3917C71.5625 63.6239 72.0379 63.0729 72.466 61.9815C72.5192 61.8445 72.5679 61.712 72.6092 61.5795C72.968 60.4715 72.9222 59.5562 72.6786 58.403C72.3036 56.6325 71.3765 55.3996 69.8676 54.3758C68.3573 53.3476 67.2205 53.322 65.1433 53.322H64.8081ZM62.6379 61.578L62.6187 56.482H64.6295C65.8312 56.482 66.6993 56.2848 67.7062 56.9713C68.6526 57.6141 69.187 58.3096 69.2859 59.4553C69.3612 60.3134 69.1959 60.9367 68.7308 61.575H68.7279C68.657 61.6683 68.5802 61.7632 68.499 61.8595C67.7166 62.7508 67.0301 62.9119 65.6703 62.9119H62.6453L62.6379 61.578Z" fill="black"/>
<mask id="mask29" mask-type="alpha" maskUnits="userSpaceOnUse" x="59" y="53" width="14" height="24">
<path d="M64.8094 53.322H59.1416L59.149 61.5795L59.1549 69.4185L59.1593 76.8254H62.5682V69.4185V66.8562H63.0687L64.4742 69.4185L68.5372 76.8254L72.3093 76.8405L68.4663 69.4185L66.7301 66.0718C68.1976 65.6895 69.4171 65.4968 70.6823 64.3902C71.5622 63.6239 72.0376 63.0729 72.4643 61.9815C72.5189 61.8445 72.5691 61.712 72.609 61.581C72.9677 60.4715 72.922 59.5562 72.6784 58.403C72.3034 56.6325 71.3762 55.3996 69.8689 54.3758C68.3571 53.3461 67.2217 53.322 65.1415 53.322H64.8094ZM62.6391 61.5795L62.617 56.482H64.6292C65.831 56.482 66.6991 56.2848 67.706 56.9713C68.6509 57.6141 69.1868 58.3081 69.2857 59.4568C69.3625 60.3119 69.1956 60.9352 68.7306 61.575H68.7276C68.6568 61.6683 68.5815 61.7632 68.4988 61.8595C67.7178 62.7493 67.0298 62.9119 65.6716 62.9119H62.645L62.6391 61.5795Z" fill="white"/>
</mask>
<g mask="url(#mask29)">
<path fill-rule="evenodd" clip-rule="evenodd" d="M59.1416 76.8405H72.9677V53.322H59.1416V76.8405Z" fill="black"/>
</g>
<path fill-rule="evenodd" clip-rule="evenodd" d="M79.189 61.5789L79.1949 69.4194L79.1979 76.8745H82.6215L82.5654 69.8891L90.6426 69.9102L95.5338 76.8745L99.3532 76.876L94.1667 69.4194L88.7101 61.5789L82.9818 53.3516L79.1846 53.3064L79.189 61.5789ZM82.84 61.5789V59.0498L84.7209 61.5789L88.1431 66.1812L82.84 66.1887V61.5789Z" fill="black"/>
<mask id="mask30" mask-type="alpha" maskUnits="userSpaceOnUse" x="79" y="53" width="21" height="24">
<path d="M79.1892 61.5797L79.1951 69.4187L79.1996 76.8753H82.6218L82.5642 69.8884L90.6429 69.911L95.5341 76.8753L99.3534 76.8768L94.167 69.4187L88.7103 61.5797L82.982 53.3523L79.1848 53.3057L79.1892 61.5797ZM82.8403 61.5797V59.0505L84.7212 61.5797L88.1434 66.1804L82.8403 66.188V61.5797Z" fill="white"/>
</mask>
<g mask="url(#mask30)">
<path fill-rule="evenodd" clip-rule="evenodd" d="M79.1848 76.8753H99.3549V53.3057H79.1848V76.8753Z" fill="black"/>
</g>
<path fill-rule="evenodd" clip-rule="evenodd" d="M74.3369 53.328V61.578V69.4185V76.7833H77.6263V69.4185V61.578V53.322L74.3369 53.328Z" fill="black"/>
<mask id="mask31" mask-type="alpha" maskUnits="userSpaceOnUse" x="74" y="53" width="4" height="24">
<path d="M74.3364 53.328V61.5795V69.4185V76.7833H77.6258V69.4185V61.5795V53.322L74.3364 53.328Z" fill="white"/>
</mask>
<g mask="url(#mask31)">
<path fill-rule="evenodd" clip-rule="evenodd" d="M74.3364 76.7833H77.6258V53.322H74.3364V76.7833Z" fill="black"/>
</g>
<path fill-rule="evenodd" clip-rule="evenodd" d="M31.5044 53.2827V56.6399H36.4975L36.496 61.5794L36.493 69.4198L36.4886 76.8403H40.4704L40.4733 69.4198L40.4763 61.5794L40.4792 56.6399H45.2287V53.2827H31.5044Z" fill="black"/>
<mask id="mask32" mask-type="alpha" maskUnits="userSpaceOnUse" x="31" y="53" width="15" height="24">
<path d="M31.5042 53.283V56.6402H36.4972L36.4957 61.5796L36.4928 69.4186L36.4898 76.8405H40.4701L40.4731 69.4186L40.4775 61.5796L40.4804 56.6402H45.2284V53.283H31.5042Z" fill="white"/>
</mask>
<g mask="url(#mask32)">
<path fill-rule="evenodd" clip-rule="evenodd" d="M31.5042 76.8405H45.2284V53.283H31.5042V76.8405Z" fill="black"/>
</g>
<mask id="mask33" mask-type="alpha" maskUnits="userSpaceOnUse" x="0" y="80" width="100" height="2">
<path d="M0.0725098 80.0842H100V81.5897H0.0725098V80.0842Z" fill="white"/>
</mask>
<g mask="url(#mask33)">
<path d="M0.0725098 80.8369H100" stroke="black" stroke-width="0.802"/>
</g>
<path fill-rule="evenodd" clip-rule="evenodd" d="M6.15791 84.7136H4.48667L1.27115 88.2018V84.7136H0V93.4634H1.27115V89.8412L1.52065 89.5793L4.48667 93.4634H6.18301L2.405 88.6745L6.15791 84.7136Z" fill="black"/>
<path fill-rule="evenodd" clip-rule="evenodd" d="M9.3251 88.7272V85.9451H9.76063C10.3851 85.9451 11.4939 86.0625 11.4939 87.297C11.4939 88.6881 10.0736 88.7272 9.7252 88.7272H9.3251ZM12.7148 87.2835C12.7148 86.9041 12.641 85.8683 11.7301 85.224C11.1957 84.8446 10.5475 84.7136 9.5377 84.7136H8.05396V93.4634H9.3251V89.8819H9.54951L11.9309 93.4634H13.4634L10.8709 89.7238C11.9796 89.4619 12.7148 88.5435 12.7148 87.2835Z" fill="black"/>
<path fill-rule="evenodd" clip-rule="evenodd" d="M15.4575 93.4627H20.0446V92.2026H16.7287V89.3166H19.9457V88.058H16.7287V85.9715H20.0446V84.7129H15.4575V93.4627Z" fill="black"/>
<path fill-rule="evenodd" clip-rule="evenodd" d="M26.8272 90.8518L23.935 84.0576L22.1899 93.4623H23.4862L24.3587 88.1766L26.7519 93.8688L29.1702 88.1886L30.0191 93.4623H31.3153L29.7445 84.0576L26.8272 90.8518Z" fill="black"/>
<path fill-rule="evenodd" clip-rule="evenodd" d="M35.079 84.7136H33.8079V93.4634H37.5224V92.2033H35.079V84.7136Z" fill="black"/>
<mask id="mask34" mask-type="alpha" maskUnits="userSpaceOnUse" x="0" y="0" width="100" height="94">
<path d="M0 94H100V0H0V94Z" fill="white"/>
</mask>
<g mask="url(#mask34)">
<path fill-rule="evenodd" clip-rule="evenodd" d="M39.4675 93.4624H40.7387V84.7126H39.4675V93.4624Z" fill="black"/>
<path fill-rule="evenodd" clip-rule="evenodd" d="M49.5146 90.7737L43.4822 84.1226V93.4625H44.7519V87.3503L50.7857 93.9999V84.7142H49.5146V90.7737Z" fill="black"/>
<path fill-rule="evenodd" clip-rule="evenodd" d="M59.0276 88.6743H58.4533V85.9464H59.0143C60.4611 85.9464 60.6472 86.812 60.6472 87.2968C60.6472 88.1097 60.1245 88.6743 59.0276 88.6743ZM60.8347 85.1861C60.2352 84.7646 59.5251 84.7134 59.0143 84.7134H57.1821V93.4632H58.4533V89.9072H59.0276C59.6388 89.9072 60.3976 89.8154 61.0591 89.2253C61.7441 88.6095 61.8696 87.8222 61.8696 87.3103C61.8696 86.5109 61.533 85.6709 60.8347 85.1861Z" fill="black"/>
<path fill-rule="evenodd" clip-rule="evenodd" d="M65.3966 90.0915L66.6811 87.1273L67.9153 90.0915H65.3966ZM62.5916 93.4623H63.9631L64.874 91.3501H68.4261L69.2987 93.4623H70.6702L66.7298 84.2021L62.5916 93.4623Z" fill="black"/>
<path fill-rule="evenodd" clip-rule="evenodd" d="M73.7365 84.7136H72.4653V93.4634H76.1799V92.2033H73.7365V84.7136Z" fill="black"/>
<path fill-rule="evenodd" clip-rule="evenodd" d="M79.9821 90.0915L81.2665 87.1273L82.5008 90.0915H79.9821ZM77.177 93.4623H78.5485L79.4595 91.3501H83.0116L83.8841 93.4623H85.2557L81.3152 84.2021L77.177 93.4623Z" fill="black"/>
<path fill-rule="evenodd" clip-rule="evenodd" d="M87.7978 85.6971C87.0994 86.3926 86.4646 87.5066 86.4646 89.119C86.4646 90.3535 86.8263 91.4675 87.7978 92.4265C88.285 92.9113 89.2313 93.6324 90.7401 93.6324C91.313 93.6324 92.187 93.5014 93.0211 92.976V91.3892C92.5472 91.862 91.7751 92.3994 90.7785 92.3994C89.0069 92.3994 87.7357 90.9707 87.7357 89.119C87.7357 87.192 88.9567 85.7889 90.7652 85.7889C91.2392 85.7889 92.0984 85.8807 93.0211 86.7599V85.1852C92.2977 84.7004 91.5625 84.5559 90.8022 84.5559C89.6565 84.5559 88.6585 84.845 87.7978 85.6971Z" fill="black"/>
<path fill-rule="evenodd" clip-rule="evenodd" d="M99.9274 85.9719V84.7134H95.3403V93.4632H99.9274V92.2031H96.6115V89.3171H99.8285V88.0585H96.6115V85.9719H99.9274Z" fill="black"/>
</g>
<path d="M20.956 117.328C21.8707 117.328 22.608 116.969 23.168 116.25C23.7373 115.522 24.022 114.467 24.022 113.086C24.022 111.723 23.728 110.683 23.14 109.964C22.5613 109.236 21.8333 108.872 20.956 108.872C20.0507 108.872 19.2993 109.222 18.702 109.922C18.114 110.622 17.82 111.653 17.82 113.016C17.82 114.407 18.1093 115.475 18.688 116.222C19.2667 116.959 20.0227 117.328 20.956 117.328ZM20.956 118.21C20.4053 118.21 19.892 118.112 19.416 117.916C18.94 117.72 18.506 117.426 18.114 117.034C17.722 116.633 17.4093 116.091 17.176 115.41C16.952 114.719 16.84 113.921 16.84 113.016C16.84 111.42 17.2413 110.183 18.044 109.306C18.8467 108.429 19.8173 107.99 20.956 107.99C22.0667 107.99 23.0187 108.438 23.812 109.334C24.6053 110.23 25.002 111.481 25.002 113.086C25.002 113.991 24.89 114.785 24.666 115.466C24.442 116.147 24.134 116.684 23.742 117.076C23.3593 117.459 22.9347 117.743 22.468 117.93C22.0013 118.117 21.4973 118.21 20.956 118.21ZM27.0338 115.424V110.58H27.9438V115.256C27.9438 116.021 28.0931 116.567 28.3918 116.894C28.6904 117.211 29.1898 117.37 29.8898 117.37C30.4871 117.37 30.9398 117.179 31.2478 116.796C31.5651 116.413 31.7238 115.895 31.7238 115.242V110.58H32.6338V118H31.7238V117.286H31.6958C31.6771 117.314 31.6538 117.351 31.6258 117.398C31.5978 117.435 31.5231 117.505 31.4018 117.608C31.2804 117.711 31.1498 117.804 31.0098 117.888C30.8698 117.972 30.6784 118.047 30.4358 118.112C30.2024 118.177 29.9504 118.21 29.6798 118.21C28.8771 118.21 28.2331 117.986 27.7478 117.538C27.2718 117.081 27.0338 116.376 27.0338 115.424ZM35.1565 118V110.58H36.0385V111.378H36.0665C36.2252 111.07 36.4445 110.841 36.7245 110.692C37.0138 110.533 37.3078 110.454 37.6065 110.454C37.7278 110.454 37.8398 110.468 37.9425 110.496C38.0545 110.515 38.1338 110.533 38.1805 110.552L38.2365 110.594L38.0545 111.518C37.9518 111.443 37.7558 111.406 37.4665 111.406C37.0558 111.406 36.7198 111.555 36.4585 111.854C36.1972 112.153 36.0665 112.591 36.0665 113.17V118H35.1565ZM43.6227 118V108.2H44.5327V112.498H49.2507V108.2H50.1607V118H49.2507V113.338H44.5327V118H43.6227ZM55.6625 117.37C56.3345 117.37 56.8945 117.099 57.3425 116.558C57.7905 116.007 58.0145 115.251 58.0145 114.29C58.0145 113.319 57.7905 112.563 57.3425 112.022C56.9039 111.481 56.3439 111.21 55.6625 111.21C54.9532 111.21 54.3699 111.481 53.9125 112.022C53.4645 112.554 53.2405 113.31 53.2405 114.29C53.2405 115.27 53.4692 116.031 53.9265 116.572C54.3932 117.104 54.9719 117.37 55.6625 117.37ZM55.6625 118.21C54.6919 118.21 53.8939 117.865 53.2685 117.174C52.6432 116.474 52.3305 115.513 52.3305 114.29C52.3305 113.077 52.6525 112.12 53.2965 111.42C53.9405 110.72 54.7292 110.37 55.6625 110.37C56.5772 110.37 57.3472 110.72 57.9725 111.42C58.6072 112.12 58.9245 113.077 58.9245 114.29C58.9245 115.522 58.6165 116.483 58.0005 117.174C57.3939 117.865 56.6145 118.21 55.6625 118.21ZM61.2213 115.998V111.42H60.1853V110.58H61.2493V108.76H62.1313V110.58H63.9513V111.42H62.1313V115.872C62.1313 116.32 62.192 116.637 62.3133 116.824C62.4346 117.011 62.6726 117.104 63.0273 117.104H63.5593V118H62.9993C61.814 118 61.2213 117.333 61.2213 115.998ZM70.9091 115.816L71.6791 116.236C71.4364 116.796 71.0491 117.267 70.5171 117.65C69.9851 118.023 69.3364 118.21 68.5711 118.21C67.5724 118.21 66.7511 117.855 66.1071 117.146C65.4631 116.427 65.1411 115.475 65.1411 114.29C65.1411 113.105 65.4538 112.157 66.0791 111.448C66.7138 110.729 67.5258 110.37 68.5151 110.37C69.5138 110.37 70.3164 110.715 70.9231 111.406C71.5298 112.097 71.8331 113.058 71.8331 114.29V114.556H66.0651C66.0651 115.312 66.2751 115.97 66.6951 116.53C67.1244 117.09 67.7404 117.37 68.5431 117.37C68.8604 117.37 69.1498 117.328 69.4111 117.244C69.6724 117.16 69.8778 117.071 70.0271 116.978C70.1764 116.875 70.3211 116.735 70.4611 116.558C70.6011 116.381 70.6898 116.25 70.7271 116.166C70.7738 116.082 70.8344 115.965 70.9091 115.816ZM66.0931 113.786H70.8951C70.8951 113.487 70.8531 113.198 70.7691 112.918C70.6944 112.629 70.5684 112.353 70.3911 112.092C70.2231 111.821 69.9758 111.607 69.6491 111.448C69.3224 111.289 68.9444 111.21 68.5151 111.21C68.0858 111.21 67.7031 111.299 67.3671 111.476C67.0404 111.653 66.7884 111.882 66.6111 112.162C66.4338 112.433 66.3031 112.708 66.2191 112.988C66.1351 113.268 66.0931 113.534 66.0931 113.786ZM73.8616 118V107.78H74.7716V118H73.8616ZM76.7332 115.452L77.6432 115.312C77.7179 116.012 77.9279 116.535 78.2732 116.88C78.6279 117.225 79.1365 117.398 79.7992 117.398C80.4339 117.398 80.9052 117.281 81.2132 117.048C81.5212 116.805 81.6752 116.488 81.6752 116.096C81.6752 115.685 81.5305 115.373 81.2412 115.158C80.9612 114.934 80.3732 114.701 79.4772 114.458C78.5439 114.206 77.8952 113.926 77.5312 113.618C77.1672 113.301 76.9852 112.871 76.9852 112.33C76.9852 111.798 77.2092 111.341 77.6572 110.958C78.1052 110.566 78.7165 110.37 79.4912 110.37C80.2845 110.37 80.9145 110.566 81.3812 110.958C81.8479 111.341 82.1512 111.849 82.2912 112.484L81.4512 112.708C81.1712 111.681 80.5179 111.168 79.4912 111.168C78.9592 111.168 78.5532 111.285 78.2732 111.518C77.9932 111.751 77.8532 112.022 77.8532 112.33C77.8532 112.666 77.9792 112.918 78.2312 113.086C78.4832 113.245 79.0479 113.45 79.9252 113.702C80.9239 113.991 81.6099 114.304 81.9832 114.64C82.3659 114.976 82.5572 115.457 82.5572 116.082C82.5572 116.67 82.3285 117.174 81.8712 117.594C81.4232 118.005 80.7325 118.21 79.7992 118.21C78.8379 118.21 78.1005 117.958 77.5872 117.454C77.0832 116.941 76.7985 116.273 76.7332 115.452Z" fill="#0D0D2D"/>
</svg>
